<svg height="128" width="128" xmlns="http://www.w3.org/2000/svg" xmlns:xlink="http://www.w3.org/1999/xlink">
  <linearGradient id="a">
    <stop offset="0" stop-color="#fff"/>
    <stop offset="1" stop-color="#fff" stop-opacity="0"/>
  </linearGradient>
  <clipPath id="f">
    <path d="M21 14.5c-.34 0-.5.235-.5.5v108.969c0 .821.68 1.5 1.5 1.5l55 .031c.053 0 .998-.008 1.688 0 10.098-3.995 25.413-22.453 34.358-31.455 1.477-1.657 1.114-1.151 1.454-2.889V15c0-.323-.163-.5-.5-.5z"/>
  </clipPath>
  <linearGradient id="g" gradientUnits="userSpaceOnUse" x1="101.211" x2="9.754" y1="108.799" y2="5.208">
    <stop offset="0"/>
    <stop offset="1" stop-opacity="0"/>
  </linearGradient>
  <filter id="h">
    <feGaussianBlur stdDeviation=".174"/>
  </filter>
  <radialGradient id="o" cx="90.75" cy="110.253" gradientUnits="userSpaceOnUse" r="24.501" xlink:href="#a"/>
  <clipPath id="m">
    <path d="M112 82.503c0 4.465-2.797 6.41-5.28 8.094-5.108 3.465-14.939 3.325-20.72 3.406-.081 5.781.166 15.505-3.3 20.613-1.683 2.482-5.29 5.387-8.2 5.387 2.318 0 4.743-1.335 7.584-4.085 9.142-8.849 17.367-16.135 25.673-25.297 1.92-2.117 4.243-3.642 4.243-8.118z"/>
  </clipPath>
  <filter id="n" color-interpolation-filters="sRGB">
    <feGaussianBlur stdDeviation=".43"/>
  </filter>
  <linearGradient id="l" gradientUnits="userSpaceOnUse" x1="86.882" x2="95.428" y1="93.756" y2="102.302">
    <stop offset="0" stop-color="#fcfcfc"/>
    <stop offset=".523" stop-color="#f8f8f8"/>
    <stop offset=".723" stop-color="#f0efef"/>
    <stop offset=".89" stop-color="#e3e1e1"/>
    <stop offset="1" stop-color="#cecbcb"/>
  </linearGradient>
  <clipPath id="i">
    <path d="M17 8v112h57.5c1.675 0 3.914-.565 7-3.6 8.87-8.725 20.24-19.852 27.499-27.176 2.44-2.463 3.001-4.471 3.001-6.724V8z"/>
  </clipPath>
  <filter id="k" color-interpolation-filters="sRGB" height="1.241" width="1.225" x="-.113" y="-.121">
    <feGaussianBlur stdDeviation="2.386"/>
  </filter>
  <radialGradient id="e" cx="64" cy="64.004" fx="63.793" fy="47.275" gradientTransform="matrix(1.6842105 -.08429519 .06886339 1.3758846 -48.197002 -18.663233)" gradientUnits="userSpaceOnUse" r="47.5" xlink:href="#a"/>
  <filter id="j" color-interpolation-filters="sRGB" height="2.026" width="1.957" x="-.479" y="-.513">
    <feGaussianBlur stdDeviation="10.141"/>
  </filter>
  <linearGradient id="d" gradientUnits="userSpaceOnUse" x1="72" x2="72" y2="116.401">
    <stop offset="0" stop-color="#eeecec"/>
    <stop offset=".4" stop-color="#f4f4f4"/>
    <stop offset="1" stop-color="#f6f5f5"/>
  </linearGradient>
  <filter id="c" color-interpolation-filters="sRGB">
    <feGaussianBlur stdDeviation="1.036"/>
  </filter>
  <filter id="b" color-interpolation-filters="sRGB">
    <feGaussianBlur stdDeviation="1.501"/>
  </filter>
  <path d="M17 8.5v112h58.188c2.115 0 4.528-1.772 7-4.25.712-.714 1.44-1.394 2.156-2.094.415-.406.832-.814 1.25-1.219 7.774-7.41 14.983-14.022 22.219-22 .42-.42.812-.81 1.156-1.187 1.464-1.498 2.761-2.838 2.994-5.862l.037-.732V8.5z" filter="url(#b)" opacity=".262"/>
  <path d="M17 8v112.2h57.746c4.169 0 7.729-4.856 20.854-17.1 7.486-6.984 10.44-10.89 13.15-13.6 1.743-1.743 3.25-3.037 3.25-7.2V8z" fill-opacity=".701" filter="url(#c)"/>
  <path d="M17 8v112h57.5c1.675 0 3.914-.565 7-3.6 8.87-8.725 20.24-19.852 27.499-27.176 2.44-2.463 3.001-4.471 3.001-6.724V8z" fill="#fff"/>
  <path d="M18.5 9c-.34 0-.5.235-.5.5v107.969c0 .821.68 1.5 1.5 1.5h53.688c.053 0 .81.023 1.5.031 1.777-.04 3.131-.754 4.356-1.593 1.051-.291 20.65-19.62 29.77-28.81 1.363-1.372 2.186-3.948 2.186-4.895V9.5c0-.323-.163-.5-.5-.5z" fill="url(#d)"/>
  <path d="M18.5 9c-.34 0-.5.235-.5.5v107.969c0 .821.68 1.5 1.5 1.5L74 119c.053 0 3.274-.008 3.963 0 6.541-4.504 22.638-21.953 31.583-30.955 1.477-1.656.458-.37 1.454-1.607V9.5c0-.323-.163-.5-.5-.5z" fill="url(#e)" opacity=".847"/>
  <text style="font-size:38.729874;letter-spacing:0;word-spacing:0;opacity:.979079;fill:#3b3b3b;font-family:Sans" transform="scale(1.0179036 .9824113)" x="47.004" y="104.941">
    <tspan fill="#3b3b3b" font-family="Liberation Sans" font-size="38.73" x="47.004" y="104.941">txt</tspan>
  </text>
  <g clip-path="url(#f)" fill="url(#g)" filter="url(#h)" opacity=".285" transform="translate(-7 -7.9)">
    <path d="M32.229 26.426V22.83h.339v3.3h1.836v.296zm2.711-1.294c0 .348.077.619.23.81.155.193.372.289.65.289.281 0 .499-.095.652-.286.153-.19.23-.461.23-.813 0-.351-.077-.622-.23-.813-.153-.192-.37-.288-.652-.288-.278 0-.495.096-.65.288-.153.192-.23.463-.23.813m-.31 0c0-.434.104-.77.31-1.008.21-.24.502-.36.88-.36.38 0 .673.12.881.36.21.237.315.574.315 1.008 0 .431-.104.766-.312 1.004-.209.237-.503.356-.884.356-.378 0-.67-.118-.88-.354-.206-.238-.31-.573-.31-1.006m2.923 1.294v-2.595h.29v.454a.852.852 0 0 1 .31-.39.885.885 0 0 1 .492-.13h.034v.315h-.04c-.258 0-.453.076-.583.23-.128.152-.193.381-.193.685v1.431zm1.709-1.24v.014c0 .318.077.571.23.76.153.187.358.28.615.28a.792.792 0 0 0 .51-.163.693.693 0 0 0 .25-.452h.3a.935.935 0 0 1-.342.635c-.196.158-.441.237-.738.237-.353 0-.63-.12-.83-.359-.2-.24-.3-.571-.3-.996 0-.433.1-.77.3-1.013.202-.243.482-.364.84-.364.348 0 .62.116.813.35.195.23.293.554.293.97v.1h-1.94m.004-.24l1.626.002c-.013-.287-.091-.512-.234-.674a.71.71 0 0 0-.567-.247.746.746 0 0 0-.58.25c-.149.165-.23.388-.245.668m2.466 1.482v-2.595h.28v.43a.954.954 0 0 1 .342-.367.91.91 0 0 1 .484-.13c.194 0 .355.046.483.135a.63.63 0 0 1 .257.376.934.934 0 0 1 .341-.378.924.924 0 0 1 .494-.132c.281 0 .491.07.63.212.14.14.21.354.21.64v1.81h-.306V24.64c0-.218-.042-.374-.127-.468-.084-.095-.224-.142-.417-.142-.23 0-.414.07-.552.212a.763.763 0 0 0-.207.557v1.626h-.3V24.67c0-.215-.046-.375-.135-.479-.09-.104-.227-.156-.413-.156a.74.74 0 0 0-.554.217.784.784 0 0 0-.21.57v1.603zm5.53-3.144v-.452h.298v.452zm0 3.144v-2.595h.298v2.595zm1.303-1.294c0 .344.078.613.232.808.155.194.369.29.642.29.284 0 .5-.094.652-.285.153-.19.23-.461.23-.813 0-.351-.077-.622-.23-.813-.153-.192-.37-.288-.652-.288-.28 0-.495.095-.647.286-.15.19-.227.462-.227.815m-.29 2.339v-3.64h.305v.466a.994.994 0 0 1 .369-.4c.148-.088.327-.132.537-.132.356 0 .637.122.842.366.205.243.308.576.308 1.001s-.104.759-.313 1.001c-.206.243-.49.364-.852.364-.2 0-.373-.043-.52-.13a1.05 1.05 0 0 1-.37-.39v1.494zm2.781-1.853h.3a.594.594 0 0 0 .203.437.73.73 0 0 0 .493.166c.216 0 .386-.042.51-.127a.403.403 0 0 0 .188-.35c0-.209-.23-.37-.69-.48a.074.074 0 0 0-.013-.002c-.371-.09-.62-.188-.747-.296a.56.56 0 0 1-.188-.45c0-.222.082-.403.246-.541.166-.14.382-.21.647-.21.292 0 .524.073.696.22.173.145.268.346.286.605h-.305a.558.558 0 0 0-.198-.41c-.119-.1-.28-.149-.484-.149a.679.679 0 0 0-.424.122.387.387 0 0 0-.159.322c0 .232.236.402.708.513l.14.032c.295.073.501.164.617.273.115.11.173.262.173.46a.643.643 0 0 1-.273.536c-.181.139-.42.208-.716.208-.3 0-.542-.08-.725-.24a.844.844 0 0 1-.285-.639m4.602-1.788v2.596h-.29v-.415a.993.993 0 0 1-.365.366c-.141.08-.31.12-.505.12-.293 0-.513-.077-.662-.23-.146-.154-.22-.385-.22-.69V23.83h.301v1.675c0 .258.049.442.146.551.098.11.26.164.489.164.249 0 .445-.076.588-.227.145-.153.217-.362.217-.628V23.83zm.674 2.596v-2.595h.28v.43a.954.954 0 0 1 .342-.367.91.91 0 0 1 .483-.13c.194 0 .355.046.484.135a.63.63 0 0 1 .256.376.934.934 0 0 1 .342-.378.924.924 0 0 1 .493-.132c.282 0 .492.07.63.212.14.14.21.354.21.64v1.81h-.305V24.64c0-.218-.042-.374-.127-.468-.085-.095-.224-.142-.418-.142-.23 0-.413.07-.551.212a.763.763 0 0 0-.208.557v1.626h-.3V24.67c0-.215-.045-.375-.134-.479-.09-.104-.227-.156-.413-.156a.74.74 0 0 0-.554.217.784.784 0 0 0-.21.57v1.603zm5.693-1.294c0 .348.076.619.23.81.154.193.369.289.644.289.283 0 .5-.095.652-.283.153-.19.23-.463.23-.816 0-.351-.077-.622-.23-.813-.153-.192-.37-.288-.652-.288-.28 0-.496.095-.647.286-.151.188-.227.46-.227.815m2.031-2.302v3.596h-.3v-.44c-.1.17-.226.298-.381.384a1.087 1.087 0 0 1-.535.127c-.35 0-.626-.122-.83-.366-.203-.244-.305-.577-.305-.999 0-.421.103-.754.31-.998.208-.246.49-.37.845-.37.203 0 .38.044.53.13a.954.954 0 0 1 .366.386v-1.45zm.864 2.302c0 .348.077.619.23.81.154.193.371.289.65.289.28 0 .498-.095.651-.286.153-.19.23-.461.23-.813 0-.351-.077-.622-.23-.813-.153-.192-.37-.288-.652-.288-.278 0-.495.096-.65.288-.152.192-.229.463-.229.813m-.31 0c0-.434.104-.77.31-1.008.209-.24.502-.36.88-.36.379 0 .672.12.88.36.21.237.316.574.316 1.008 0 .431-.105.766-.313 1.004-.208.237-.503.356-.884.356-.377 0-.67-.118-.879-.354-.206-.238-.31-.573-.31-1.006m2.954 1.294V22.83h.298v3.596zm1.185-1.294c0 .348.076.619.229.81.155.193.371.289.65.289.281 0 .498-.095.651-.286.153-.19.23-.461.23-.813 0-.351-.077-.622-.23-.813-.153-.192-.37-.288-.652-.288-.278 0-.494.096-.649.288-.153.192-.23.463-.23.813m-.31 0c0-.434.104-.77.31-1.008.209-.24.502-.36.88-.36.379 0 .672.12.88.36.21.237.316.574.316 1.008 0 .431-.104.766-.313 1.004-.208.237-.503.356-.884.356-.377 0-.67-.118-.878-.354-.207-.238-.31-.573-.31-1.006m2.922 1.294v-2.595h.29v.454a.852.852 0 0 1 .31-.39.885.885 0 0 1 .491-.13h.034v.315h-.039c-.259 0-.453.076-.583.23-.129.152-.193.381-.193.685v1.431zm2.751-.808h.3a.594.594 0 0 0 .203.437.73.73 0 0 0 .493.166c.217 0 .387-.042.51-.127a.403.403 0 0 0 .189-.35c0-.209-.23-.37-.691-.48a.074.074 0 0 0-.013-.002c-.37-.09-.62-.188-.747-.296a.56.56 0 0 1-.188-.45c0-.222.083-.403.247-.541.166-.14.382-.21.647-.21.291 0 .523.073.696.22.172.145.268.346.285.605h-.305a.558.558 0 0 0-.197-.41c-.12-.1-.28-.149-.484-.149a.679.679 0 0 0-.425.122.387.387 0 0 0-.158.322c0 .232.236.402.708.513l.139.032c.296.073.502.164.617.273.116.11.174.262.174.46a.642.642 0 0 1-.274.536c-.18.139-.419.208-.715.208-.301 0-.543-.08-.725-.24a.844.844 0 0 1-.286-.639m2.603-2.336v-.452h.298v.452zm0 3.144v-2.595h.298v2.595zm1.399-3.34v.745h.48v.244h-.48v1.892c0 .11.014.184.041.22.028.036.078.054.15.054.03 0 .065-.003.104-.008.04-.006.1-.018.183-.036l.003.239a1.632 1.632 0 0 1-.371.056c-.15 0-.256-.037-.318-.112-.062-.077-.093-.214-.093-.413v-1.892h-.354v-.244h.354v-.745h.3m3.961 1.98c-.08.03-.183.053-.308.071a7.465 7.465 0 0 1-.6.049.987.987 0 0 0-.435.215.445.445 0 0 0-.147.334.44.44 0 0 0 .157.354.652.652 0 0 0 .43.132c.274 0 .493-.07.656-.212.165-.144.247-.338.247-.584zm.02.984a1.405 1.405 0 0 1-.445.332 1.22 1.22 0 0 1-.515.11c-.262 0-.471-.068-.628-.205a.694.694 0 0 1-.232-.547.71.71 0 0 1 .105-.388.725.725 0 0 1 .31-.261c.155-.07.413-.12.774-.147l.159-.012.085-.017c.248-.05.372-.157.372-.32 0-.202-.05-.346-.152-.432-.1-.088-.263-.132-.493-.132-.233 0-.41.049-.535.147-.123.096-.19.239-.2.43l-.295-.003a.775.775 0 0 1 .285-.613c.184-.151.433-.227.745-.227.31 0 .547.067.708.2.161.134.242.329.242.586v1.416c0 .108.013.174.039.2s.075.04.146.04h.059l.051-.006v.225a.898.898 0 0 1-.112.017.795.795 0 0 1-.103.007c-.123 0-.216-.03-.278-.09s-.093-.15-.093-.268v-.042m.996.376v-2.595h.281v.43a.954.954 0 0 1 .342-.367.91.91 0 0 1 .483-.13c.194 0 .355.046.484.135a.63.63 0 0 1 .256.376.934.934 0 0 1 .342-.378.924.924 0 0 1 .493-.132c.282 0 .492.07.63.212.14.14.21.354.21.64v1.81h-.305V24.64c0-.218-.043-.374-.127-.468-.085-.095-.224-.142-.418-.142-.23 0-.413.07-.552.212a.763.763 0 0 0-.207.557v1.626h-.3V24.67c0-.215-.045-.375-.135-.479s-.227-.156-.412-.156a.74.74 0 0 0-.554.217.784.784 0 0 0-.21.57v1.603zm4.346-1.24v.014c0 .318.077.571.23.76.153.187.358.28.615.28a.792.792 0 0 0 .51-.163.693.693 0 0 0 .249-.452h.3a.935.935 0 0 1-.341.635c-.196.158-.442.237-.738.237-.353 0-.63-.12-.83-.359-.2-.24-.3-.571-.3-.996 0-.433.1-.77.3-1.013.202-.243.482-.364.84-.364.348 0 .62.116.813.35.195.23.293.554.293.97v.1h-1.941m.005-.24l1.626.002c-.013-.287-.091-.512-.234-.674a.71.71 0 0 0-.567-.247.746.746 0 0 0-.58.25c-.149.165-.23.388-.245.668m2.861-1.858v.745h.481v.244h-.48v1.892c0 .11.013.184.04.22.028.036.078.054.15.054.03 0 .066-.003.105-.008.039-.006.1-.018.183-.036l.002.239a1.632 1.632 0 0 1-.37.056c-.15 0-.256-.037-.318-.112-.062-.077-.093-.214-.093-.413v-1.892h-.354v-.244h.354v-.745zm1.128 4.036v-.19a.336.336 0 0 0 .117-.135.45.45 0 0 0 .037-.195v-.176h-.154v-.444h.33v.598a.655.655 0 0 1-.076.344.51.51 0 0 1-.254.198M32.62 33.53h.3c-.028.298-.138.533-.33.706-.192.17-.442.256-.75.256-.351 0-.629-.12-.832-.361-.202-.241-.303-.57-.303-.984 0-.43.103-.768.308-1.013.206-.246.489-.37.847-.37.291 0 .53.083.718.248.188.162.29.377.305.644h-.288a.686.686 0 0 0-.24-.454.737.737 0 0 0-.495-.17.744.744 0 0 0-.618.292c-.151.195-.227.46-.227.796 0 .343.077.615.23.815.154.2.361.3.62.3.202 0 .37-.062.505-.187a.839.839 0 0 0 .25-.518m.973-.398c0 .348.077.619.23.81.154.193.37.289.65.289s.498-.095.651-.286c.153-.19.23-.461.23-.813 0-.351-.077-.622-.23-.813-.153-.192-.37-.288-.652-.288-.278 0-.495.096-.65.288-.152.192-.229.463-.229.813m-.31 0c0-.434.104-.77.31-1.008.209-.24.502-.36.88-.36s.672.12.88.36c.21.237.315.574.315 1.008 0 .431-.104.766-.312 1.004-.208.237-.503.356-.884.356-.377 0-.67-.118-.879-.354-.206-.238-.31-.573-.31-1.006m2.923 1.294v-2.595h.29v.415a.99.99 0 0 1 .361-.359.99.99 0 0 1 .498-.122c.18 0 .337.032.472.095a.703.703 0 0 1 .31.271c.037.06.064.134.08.22.017.085.025.224.025.42v1.655h-.31v-1.609c0-.304-.048-.51-.142-.617-.093-.11-.257-.164-.493-.164-.243 0-.435.077-.576.232-.14.153-.21.362-.21.627v1.531zm2.585-.808h.3a.594.594 0 0 0 .203.437.73.73 0 0 0 .493.166c.217 0 .387-.042.51-.127a.403.403 0 0 0 .188-.35c0-.209-.23-.37-.69-.48a.074.074 0 0 0-.013-.002c-.37-.09-.62-.188-.747-.296a.56.56 0 0 1-.188-.45c0-.222.082-.403.247-.541.166-.14.381-.21.647-.21.291 0 .523.073.696.22.172.145.267.346.285.605h-.305a.558.558 0 0 0-.198-.41c-.119-.1-.28-.149-.483-.149a.679.679 0 0 0-.425.122.387.387 0 0 0-.159.322c0 .232.236.402.708.513l.14.032c.296.073.502.164.617.273.116.11.174.262.174.46a.644.644 0 0 1-.274.536c-.18.139-.419.208-.715.208-.301 0-.543-.08-.725-.24a.844.844 0 0 1-.286-.639m2.747-.432v.014c0 .318.076.571.23.76a.75.75 0 0 0 .614.28.792.792 0 0 0 .51-.163.693.693 0 0 0 .25-.452h.3a.935.935 0 0 1-.342.635c-.195.158-.441.237-.737.237-.353 0-.63-.12-.83-.359-.2-.24-.3-.571-.3-.996 0-.433.1-.77.3-1.013.202-.243.481-.364.84-.364.348 0 .619.116.813.35.195.23.293.554.293.97v.1h-1.941m.004-.24l1.626.002c-.013-.287-.09-.512-.234-.674a.71.71 0 0 0-.566-.247.746.746 0 0 0-.581.25c-.148.165-.23.388-.245.668m4.251.586h.3c-.027.298-.137.533-.33.706-.191.17-.441.256-.749.256-.351 0-.629-.12-.832-.361-.202-.241-.303-.57-.303-.984 0-.43.102-.768.308-1.013.206-.246.489-.37.847-.37.291 0 .53.083.717.248.19.162.291.377.306.644h-.288a.686.686 0 0 0-.24-.454.737.737 0 0 0-.495-.17.744.744 0 0 0-.618.292c-.151.195-.227.46-.227.796 0 .343.076.615.23.815s.36.3.62.3c.201 0 .37-.062.505-.187a.839.839 0 0 0 .249-.518m1.189-2.444v.745h.48v.244h-.48v1.892c0 .11.014.184.041.22.028.036.078.054.15.054.03 0 .065-.003.104-.008.04-.006.1-.018.183-.036l.003.239a1.632 1.632 0 0 1-.371.056c-.15 0-.256-.037-.318-.112-.061-.077-.092-.214-.092-.413v-1.892h-.354v-.244h.354v-.745zm1.138 2.1v.014c0 .318.076.571.23.76a.75.75 0 0 0 .614.28.792.792 0 0 0 .51-.163.693.693 0 0 0 .25-.452h.3a.935.935 0 0 1-.342.635c-.195.158-.441.237-.737.237-.353 0-.63-.12-.83-.359-.2-.24-.3-.571-.3-.996 0-.433.1-.77.3-1.013.202-.243.482-.364.84-.364.348 0 .619.116.813.35.195.23.293.554.293.97v.1H48.12m.005-.24l1.626.002c-.014-.287-.092-.512-.235-.674a.71.71 0 0 0-.566-.247.746.746 0 0 0-.581.25c-.148.165-.23.388-.244.668m2.861-1.858v.745h.48v.244h-.48v1.892c0 .11.014.184.041.22.028.036.078.054.15.054.03 0 .065-.003.104-.008.04-.006.1-.018.183-.036l.003.239a1.632 1.632 0 0 1-.371.056c-.15 0-.256-.037-.318-.112-.062-.077-.092-.214-.092-.413v-1.892h-.354v-.244h.354v-.745zm2.993.744v2.596h-.29v-.415a.993.993 0 0 1-.364.366c-.142.08-.31.12-.506.12-.293 0-.513-.077-.661-.23-.147-.154-.22-.385-.22-.69V31.83h.3v1.675c0 .258.05.442.147.551.097.11.26.164.488.164.25 0 .445-.076.588-.227.145-.153.218-.362.218-.628V31.83zm.85 1.356v.014c0 .318.076.571.23.76a.75.75 0 0 0 .614.28.792.792 0 0 0 .51-.163.693.693 0 0 0 .25-.452h.3a.935.935 0 0 1-.342.635c-.195.158-.441.237-.737.237-.353 0-.63-.12-.83-.359-.2-.24-.3-.571-.3-.996 0-.433.1-.77.3-1.013.202-.243.482-.364.84-.364.348 0 .619.116.813.35.195.23.293.554.293.97v.1h-1.941m.005-.24l1.625.002c-.013-.287-.09-.512-.234-.674a.71.71 0 0 0-.566-.247.746.746 0 0 0-.581.25c-.148.165-.23.388-.244.668m2.466 1.482v-2.595h.29v.454a.852.852 0 0 1 .31-.39.885.885 0 0 1 .49-.13h.035v.315h-.04c-.258 0-.453.076-.583.23-.128.152-.193.381-.193.685v1.431h-.31m4.531-1.36c-.08.03-.182.053-.307.071a7.46 7.46 0 0 1-.6.049.987.987 0 0 0-.435.215.445.445 0 0 0-.147.334.44.44 0 0 0 .157.354.652.652 0 0 0 .43.132c.274 0 .493-.07.656-.212a.737.737 0 0 0 .247-.584v-.359m.02.984a1.405 1.405 0 0 1-.445.332 1.22 1.22 0 0 1-.515.11c-.262 0-.472-.068-.628-.205a.694.694 0 0 1-.232-.547.71.71 0 0 1 .105-.388.725.725 0 0 1 .31-.261c.155-.07.413-.12.774-.147l.159-.012.085-.017c.248-.05.371-.157.371-.32 0-.202-.05-.346-.15-.432-.1-.088-.265-.132-.494-.132-.233 0-.411.049-.535.147-.123.096-.19.239-.2.43l-.295-.003a.775.775 0 0 1 .285-.613c.184-.151.432-.227.745-.227.31 0 .547.067.708.2.161.134.242.329.242.586v1.416c0 .108.013.174.039.2s.075.04.146.04h.059l.051-.006v.225a.898.898 0 0 1-.112.017.795.795 0 0 1-.103.007c-.124 0-.216-.03-.278-.09s-.093-.15-.093-.268v-.042m1.192-.918c0 .348.076.619.229.81.155.193.37.289.645.289.283 0 .5-.095.651-.283.153-.19.23-.463.23-.816 0-.351-.077-.622-.23-.813-.153-.192-.37-.288-.651-.288-.28 0-.496.095-.647.286-.152.188-.227.46-.227.815m2.03-2.302v3.596h-.3v-.44c-.099.17-.226.298-.38.384a1.087 1.087 0 0 1-.535.127c-.35 0-.627-.122-.83-.366-.204-.244-.305-.577-.305-.999 0-.421.103-.754.31-.998.208-.246.49-.37.844-.37.204 0 .38.044.53.13a.954.954 0 0 1 .366.386v-1.45zm.716.452v-.452h.298v.452zm0 3.144v-2.595h.298v2.595zm1.304-1.294c0 .344.077.613.232.808.154.194.368.29.642.29.283 0 .5-.094.652-.285.153-.19.23-.461.23-.813 0-.351-.077-.622-.23-.813-.153-.192-.37-.288-.652-.288-.28 0-.496.095-.647.286-.152.19-.227.462-.227.815m-.29 2.339v-3.64h.304v.466a.994.994 0 0 1 .37-.4c.147-.088.326-.132.536-.132.357 0 .637.122.842.366.206.243.308.576.308 1.001s-.104.759-.312 1.001c-.207.243-.491.364-.852.364a.999.999 0 0 1-.52-.13 1.05 1.05 0 0 1-.372-.39v1.494zm2.922-4.189v-.452h.297v.452zm0 3.144v-2.595h.297v2.595zm.893-.808h.3a.594.594 0 0 0 .203.437.73.73 0 0 0 .493.166c.217 0 .387-.042.51-.127a.403.403 0 0 0 .189-.35c0-.209-.23-.37-.691-.48a.074.074 0 0 0-.013-.002c-.37-.09-.62-.188-.747-.296a.56.56 0 0 1-.188-.45c0-.222.083-.403.247-.541.166-.14.382-.21.647-.21.291 0 .523.073.696.22.172.145.267.346.285.605h-.305a.558.558 0 0 0-.198-.41c-.118-.1-.28-.149-.483-.149a.679.679 0 0 0-.425.122.387.387 0 0 0-.158.322c0 .232.236.402.708.513l.139.032c.296.073.502.164.617.273.116.11.174.262.174.46a.642.642 0 0 1-.274.536c-.18.139-.419.208-.715.208-.301 0-.543-.08-.725-.24a.844.844 0 0 1-.286-.639m4.356-.088h.3c-.028.298-.138.533-.33.706-.192.17-.442.256-.75.256-.35 0-.628-.12-.832-.361-.201-.241-.302-.57-.302-.984 0-.43.102-.768.307-1.013.207-.246.49-.37.847-.37.292 0 .531.083.718.248.189.162.29.377.305.644h-.288a.686.686 0 0 0-.239-.454.737.737 0 0 0-.496-.17.744.744 0 0 0-.617.292c-.152.195-.227.46-.227.796 0 .343.076.615.23.815s.36.3.62.3c.201 0 .37-.062.505-.187a.839.839 0 0 0 .249-.518m.825-2.248v-.452h.298v.452zm0 3.144v-2.595h.298v2.595zm1.003 0v-2.595h.29v.415a.99.99 0 0 1 .362-.359.99.99 0 0 1 .498-.122c.18 0 .336.032.471.095a.703.703 0 0 1 .31.271c.038.06.065.134.081.22.016.085.024.224.024.42v1.655h-.31v-1.609c0-.304-.047-.51-.141-.617-.093-.11-.257-.164-.493-.164-.243 0-.435.077-.577.232-.14.153-.21.362-.21.627v1.531zm2.891-1.294c0 .344.077.614.232.81.156.196.37.294.642.294.278 0 .495-.097.65-.29.154-.195.231-.466.231-.814 0-.35-.077-.62-.232-.813-.153-.192-.37-.288-.65-.288-.279 0-.495.095-.646.286-.151.19-.227.462-.227.815m2.031-1.301v2.46c0 .396-.104.695-.312.897-.207.202-.513.303-.918.303-.303 0-.548-.069-.735-.206a.722.722 0 0 1-.305-.554h.307c.018.158.089.28.213.364.125.085.297.127.515.127.312 0 .547-.077.703-.232.158-.155.237-.384.237-.688v-.32a1.088 1.088 0 0 1-.386.388c-.15.085-.323.127-.52.127-.356 0-.637-.121-.842-.364-.205-.244-.308-.578-.308-1 0-.42.103-.754.31-1 .208-.245.488-.368.84-.368.2 0 .375.043.525.13.15.086.275.214.376.385v-.45zm2.177 1.355v.014c0 .318.077.571.23.76.153.187.358.28.616.28a.792.792 0 0 0 .51-.163.693.693 0 0 0 .249-.452h.3a.935.935 0 0 1-.342.635c-.195.158-.44.237-.737.237-.353 0-.63-.12-.83-.359-.2-.24-.3-.571-.3-.996 0-.433.1-.77.3-1.013.202-.243.482-.364.84-.364.348 0 .62.116.813.35.195.23.293.554.293.97v.1H83.9m.005-.24l1.626.002c-.013-.287-.091-.512-.235-.674a.71.71 0 0 0-.566-.247.746.746 0 0 0-.581.25c-.148.165-.23.388-.244.668m2.498 1.482V30.83h.298v3.596zm1.035-3.144v-.452h.298v.452zm0 3.144v-2.595h.298v2.595zm1.399-3.34v.745h.481v.244h-.48v1.892c0 .11.013.184.04.22.029.036.078.054.15.054.03 0 .066-.003.105-.008.039-.006.1-.018.183-.036l.002.239a1.632 1.632 0 0 1-.37.056c-.15 0-.256-.037-.318-.112-.062-.077-.093-.214-.093-.413v-1.892h-.354v-.244h.354v-.745zm1.128 3.34v-.444h.33v.444zm-57.736 16V46.83h.363l2.032 3.086V46.83h.32v3.596h-.367l-2.024-3.086v3.086zm5.129-1.36c-.08.03-.182.053-.308.071a7.46 7.46 0 0 1-.6.049.987.987 0 0 0-.435.215.445.445 0 0 0-.146.334.44.44 0 0 0 .156.354.652.652 0 0 0 .43.132c.275 0 .494-.07.656-.212.165-.144.247-.338.247-.584zm.02.984a1.405 1.405 0 0 1-.445.332 1.22 1.22 0 0 1-.515.11c-.262 0-.471-.068-.627-.205a.694.694 0 0 1-.232-.547.71.71 0 0 1 .105-.388.725.725 0 0 1 .31-.261c.154-.07.412-.12.774-.147l.158-.012.086-.017c.247-.05.37-.157.37-.32 0-.202-.05-.346-.15-.432-.1-.088-.264-.132-.494-.132-.232 0-.41.049-.534.147-.124.096-.19.239-.2.43l-.296-.003a.775.775 0 0 1 .286-.613c.184-.151.432-.227.744-.227.311 0 .547.067.708.2.161.134.242.329.242.586v1.416c0 .108.013.174.039.2s.075.04.147.04h.058l.051-.006v.225a.898.898 0 0 1-.112.017.795.795 0 0 1-.102.007c-.124 0-.217-.03-.279-.09s-.093-.15-.093-.268v-.042m.997.376v-2.595h.28v.43a.954.954 0 0 1 .342-.367.91.91 0 0 1 .483-.13c.194 0 .355.046.484.135a.63.63 0 0 1 .256.376.934.934 0 0 1 .342-.378.924.924 0 0 1 .493-.132c.282 0 .492.07.63.212.14.14.21.354.21.64v1.81h-.305V48.64c0-.218-.042-.374-.127-.468-.085-.095-.224-.142-.418-.142-.23 0-.413.07-.551.212a.763.763 0 0 0-.208.557v1.626h-.3V48.67c0-.215-.045-.375-.134-.479-.09-.104-.227-.156-.413-.156a.74.74 0 0 0-.554.217.784.784 0 0 0-.21.57v1.603zm7.168-1.36c-.08.03-.183.053-.308.071a7.46 7.46 0 0 1-.6.049.987.987 0 0 0-.435.215.445.445 0 0 0-.147.334.44.44 0 0 0 .156.354.652.652 0 0 0 .43.132c.275 0 .494-.07.657-.212a.737.737 0 0 0 .247-.584zm.019.984a1.405 1.405 0 0 1-.444.332 1.22 1.22 0 0 1-.515.11c-.262 0-.472-.068-.628-.205a.694.694 0 0 1-.232-.547.71.71 0 0 1 .105-.388.725.725 0 0 1 .31-.261c.155-.07.413-.12.774-.147l.159-.012.085-.017c.248-.05.371-.157.371-.32 0-.202-.05-.346-.151-.432-.1-.088-.264-.132-.493-.132-.233 0-.411.049-.535.147-.124.096-.19.239-.2.43l-.295-.003a.775.775 0 0 1 .285-.613c.184-.151.432-.227.745-.227.31 0 .547.067.708.2.161.134.242.329.242.586v1.416c0 .108.013.174.039.2s.074.04.146.04h.059l.051-.006v.225a.898.898 0 0 1-.112.017.795.795 0 0 1-.103.007c-.124 0-.216-.03-.278-.09s-.093-.15-.093-.268zm2.324.376v-2.595h.29v.415a.99.99 0 0 1 .362-.359.99.99 0 0 1 .498-.122c.18 0 .336.032.471.095a.703.703 0 0 1 .31.271c.038.06.065.134.081.22.016.085.024.224.024.42v1.655h-.31v-1.609c0-.304-.047-.51-.141-.618-.093-.109-.257-.163-.493-.163-.243 0-.435.077-.577.232-.14.153-.21.362-.21.627v1.531zm4.727-2.596v2.596h-.29v-.415a.993.993 0 0 1-.364.366c-.142.08-.31.12-.506.12-.293 0-.513-.077-.661-.23-.147-.154-.22-.385-.22-.69V47.83h.3v1.675c0 .258.049.442.147.551.097.11.26.164.488.164.249 0 .445-.076.588-.227.145-.153.218-.362.218-.628V47.83zm.674 2.596v-2.595h.29v.415a.99.99 0 0 1 .361-.359.99.99 0 0 1 .499-.122c.179 0 .336.032.47.095a.703.703 0 0 1 .31.271c.038.06.065.134.081.22.017.085.025.224.025.42v1.655h-.31v-1.609c0-.304-.047-.51-.142-.618-.093-.109-.257-.163-.493-.163-.243 0-.435.077-.576.232-.14.153-.21.362-.21.627v1.531zm4.48-.896h.3c-.028.298-.138.533-.33.706-.192.17-.442.256-.75.256-.35 0-.628-.12-.832-.361-.202-.241-.302-.57-.302-.984 0-.43.102-.768.307-1.013.207-.246.49-.37.847-.37.292 0 .53.083.718.248.189.162.29.377.305.644h-.288a.686.686 0 0 0-.239-.454.737.737 0 0 0-.496-.17.744.744 0 0 0-.617.292c-.152.195-.227.46-.227.796 0 .343.076.615.23.815s.36.3.62.3c.201 0 .37-.062.505-.187a.839.839 0 0 0 .249-.518m.959.896v-.444h.33v.444zm2.575 0V46.83h.34v3.596zm1.097 0v-2.595h.29v.415a.99.99 0 0 1 .362-.359.99.99 0 0 1 .498-.122c.179 0 .336.032.471.095a.703.703 0 0 1 .31.271c.038.06.064.134.08.22.017.085.025.224.025.42v1.655h-.31v-1.609c0-.304-.047-.51-.142-.618-.092-.109-.257-.163-.493-.163-.242 0-.434.077-.576.232-.14.153-.21.362-.21.627v1.531zm4.023 0V46.83h.306v1.406a.988.988 0 0 1 .358-.351c.144-.08.309-.12.496-.12.173 0 .327.032.464.098.137.065.24.154.312.268a.666.666 0 0 1 .081.227c.016.09.024.252.024.488v1.58h-.305v-1.575c0-.324-.046-.54-.139-.649-.093-.11-.258-.166-.496-.166a.754.754 0 0 0-.58.234c-.144.155-.215.363-.215.625v1.531zm4.375-1.36c-.08.03-.182.053-.307.071a7.46 7.46 0 0 1-.6.049.987.987 0 0 0-.435.215.445.445 0 0 0-.147.334.44.44 0 0 0 .156.354.652.652 0 0 0 .43.132c.275 0 .494-.07.657-.212a.737.737 0 0 0 .246-.584zm.02.984a1.405 1.405 0 0 1-.444.332 1.22 1.22 0 0 1-.516.11c-.262 0-.47-.068-.627-.205a.694.694 0 0 1-.232-.547.71.71 0 0 1 .105-.388.725.725 0 0 1 .31-.261c.155-.07.413-.12.774-.147l.159-.012.085-.017c.248-.05.371-.157.371-.32 0-.202-.05-.346-.151-.432-.1-.088-.264-.132-.493-.132-.233 0-.411.049-.535.147-.124.096-.19.239-.2.43l-.296-.003a.775.775 0 0 1 .286-.613c.184-.151.432-.227.745-.227.31 0 .547.067.708.2.16.134.241.329.241.586v1.416c0 .108.013.174.04.2.026.026.074.04.146.04h.059l.05-.006v.225a.898.898 0 0 1-.111.017.795.795 0 0 1-.103.007c-.124 0-.216-.03-.278-.09s-.093-.15-.093-.268zm2.781-.52h.3c-.028.298-.138.533-.33.706-.192.17-.441.256-.75.256-.35 0-.628-.12-.832-.361-.201-.241-.302-.57-.302-.984 0-.43.102-.768.307-1.013.207-.246.49-.37.847-.37.292 0 .531.083.718.248.189.162.29.377.305.644h-.288a.686.686 0 0 0-.239-.454.737.737 0 0 0-.496-.17.744.744 0 0 0-.617.292c-.152.195-.227.46-.227.796 0 .343.076.615.23.815s.36.3.62.3c.201 0 .37-.062.505-.187a.839.839 0 0 0 .249-.518m2.121.896V46.83h.305v1.406a.988.988 0 0 1 .36-.351.997.997 0 0 1 .495-.12c.172 0 .327.032.464.098.137.065.24.154.312.268a.666.666 0 0 1 .08.227 3.1 3.1 0 0 1 .025.488v1.58h-.305v-1.575c0-.324-.046-.54-.139-.649-.093-.11-.258-.166-.496-.166a.754.754 0 0 0-.58.234c-.144.155-.216.363-.216.625v1.531zm4.375-1.36c-.08.03-.182.053-.307.071a7.46 7.46 0 0 1-.6.049.987.987 0 0 0-.435.215.445.445 0 0 0-.147.334.44.44 0 0 0 .156.354.652.652 0 0 0 .43.132c.275 0 .494-.07.657-.212a.737.737 0 0 0 .246-.584zm.02.984a1.405 1.405 0 0 1-.445.332 1.22 1.22 0 0 1-.515.11c-.262 0-.47-.068-.627-.205a.694.694 0 0 1-.232-.547.71.71 0 0 1 .105-.388.725.725 0 0 1 .31-.261c.155-.07.413-.12.774-.147l.159-.012.085-.017c.247-.05.371-.157.371-.32 0-.202-.05-.346-.151-.432-.1-.088-.264-.132-.493-.132-.233 0-.411.049-.535.147-.124.096-.19.239-.2.43l-.296-.003a.775.775 0 0 1 .286-.613c.184-.151.432-.227.745-.227.31 0 .547.067.708.2.16.134.241.329.241.586v1.416c0 .108.013.174.04.2.025.026.074.04.146.04h.058l.052-.006v.225a.898.898 0 0 1-.113.017.795.795 0 0 1-.102.007c-.124 0-.217-.03-.278-.09-.062-.06-.093-.15-.093-.268zm1.282-.918c0 .345.077.615.231.808.157.194.372.29.647.29.282 0 .499-.094.65-.282.151-.19.227-.463.227-.816 0-.351-.077-.622-.23-.813-.15-.192-.367-.288-.647-.288-.281 0-.498.095-.651.286-.152.19-.227.462-.227.815m-.286 1.294V46.83h.3v1.462a1.01 1.01 0 0 1 .374-.395c.151-.088.33-.132.537-.132.355 0 .635.122.84.366.206.244.31.578.31 1.001 0 .422-.105.755-.315.999-.209.244-.493.366-.855.366-.2 0-.376-.044-.53-.132a.96.96 0 0 1-.36-.388v.45zm2.922-3.144v-.452h.298v.452zm0 3.144v-2.595h.298v2.595zm1.4-3.34v.745h.48v.244h-.48v1.892c0 .11.013.184.04.22.028.036.078.054.15.054.03 0 .066-.003.105-.008.039-.006.1-.018.183-.036l.002.239a1.632 1.632 0 0 1-.371.056c-.15 0-.256-.037-.317-.112-.062-.077-.093-.214-.093-.413v-1.892h-.354v-.244h.354v-.745h.3m2.632 1.98c-.08.03-.182.053-.308.071a7.46 7.46 0 0 1-.6.049.987.987 0 0 0-.435.215.445.445 0 0 0-.146.334.44.44 0 0 0 .156.354.652.652 0 0 0 .43.132c.275 0 .494-.07.656-.212.165-.144.247-.338.247-.584zm.02.984a1.405 1.405 0 0 1-.445.332 1.22 1.22 0 0 1-.515.11c-.262 0-.471-.068-.627-.205a.694.694 0 0 1-.232-.547.71.71 0 0 1 .105-.388.725.725 0 0 1 .31-.261c.154-.07.412-.12.774-.147l.158-.012.086-.017c.247-.05.37-.157.37-.32 0-.202-.05-.346-.15-.432-.1-.088-.264-.132-.494-.132-.232 0-.41.049-.534.147-.124.096-.19.239-.2.43l-.296-.003a.775.775 0 0 1 .286-.613c.184-.151.432-.227.744-.227.311 0 .547.067.708.2.162.134.242.329.242.586v1.416c0 .108.013.174.04.2.025.026.074.04.146.04h.058l.051-.006v.225a.898.898 0 0 1-.112.017.795.795 0 0 1-.102.007c-.124 0-.217-.03-.279-.09s-.092-.15-.092-.268zm.886-.432h.3a.594.594 0 0 0 .203.437.73.73 0 0 0 .493.166c.216 0 .386-.042.51-.127a.403.403 0 0 0 .188-.35c0-.209-.23-.37-.69-.48a.074.074 0 0 0-.013-.002c-.371-.09-.62-.188-.747-.296a.56.56 0 0 1-.188-.45c0-.222.082-.403.247-.541.166-.14.381-.21.647-.21.29 0 .523.073.695.22.173.145.268.346.286.605h-.305a.558.558 0 0 0-.198-.41c-.119-.1-.28-.149-.483-.149a.679.679 0 0 0-.425.122.387.387 0 0 0-.159.322c0 .232.236.402.708.513l.14.032c.296.073.501.164.617.273.116.11.173.262.173.46a.64.64 0 0 1-.273.536c-.18.139-.42.208-.715.208-.302 0-.543-.08-.726-.24a.844.844 0 0 1-.285-.639m2.461 0h.3a.594.594 0 0 0 .203.437.73.73 0 0 0 .493.166c.216 0 .386-.042.51-.127a.403.403 0 0 0 .188-.35c0-.209-.23-.37-.69-.48a.074.074 0 0 0-.013-.002c-.371-.09-.62-.188-.747-.296a.56.56 0 0 1-.188-.45c0-.222.082-.403.246-.541.166-.14.382-.21.647-.21.292 0 .524.073.696.22.173.145.268.346.286.605h-.305a.558.558 0 0 0-.198-.41c-.119-.1-.28-.149-.483-.149a.679.679 0 0 0-.425.122.387.387 0 0 0-.159.322c0 .232.236.402.708.513l.14.032c.295.073.501.164.617.273.115.11.173.262.173.46a.64.64 0 0 1-.273.536c-.18.139-.42.208-.716.208-.3 0-.542-.08-.725-.24a.844.844 0 0 1-.285-.639m2.746-.432v.014c0 .318.077.571.23.76.153.187.358.28.615.28a.792.792 0 0 0 .51-.163.693.693 0 0 0 .25-.452h.3a.935.935 0 0 1-.342.635c-.195.158-.441.237-.737.237-.354 0-.63-.12-.83-.359-.2-.24-.3-.571-.3-.996 0-.433.1-.77.3-1.013.201-.243.481-.364.84-.364.348 0 .619.116.812.35.196.23.293.554.293.97v.1h-1.94m.004-.24l1.626.002c-.013-.287-.091-.512-.234-.674a.71.71 0 0 0-.567-.247.746.746 0 0 0-.58.25c-.149.165-.23.388-.245.668m-63.044 8.188c0 .344.077.613.232.808.154.194.368.29.642.29.283 0 .5-.094.652-.285.153-.19.23-.461.23-.813 0-.351-.077-.622-.23-.813-.153-.192-.37-.288-.652-.288-.28 0-.496.095-.647.286-.152.19-.227.462-.227.815m-.29 2.339v-3.64h.304v.466a.994.994 0 0 1 .37-.4c.147-.088.326-.132.536-.132.357 0 .637.122.842.366.206.243.308.576.308 1.001s-.104.759-.312 1.001c-.207.243-.491.364-.852.364a.999.999 0 0 1-.52-.13 1.05 1.05 0 0 1-.372-.39v1.494zm2.922-1.045V54.83h.297v3.596zm2.673-1.36c-.08.03-.182.053-.308.071a7.46 7.46 0 0 1-.6.049.987.987 0 0 0-.435.215.445.445 0 0 0-.146.334.44.44 0 0 0 .156.354.652.652 0 0 0 .43.132c.275 0 .494-.07.656-.212.165-.144.247-.338.247-.584zm.02.984a1.405 1.405 0 0 1-.445.332 1.22 1.22 0 0 1-.515.11c-.262 0-.471-.068-.627-.205a.694.694 0 0 1-.232-.547.71.71 0 0 1 .105-.388.725.725 0 0 1 .31-.261c.154-.07.412-.12.774-.147l.158-.012.086-.017c.247-.05.37-.157.37-.32 0-.202-.05-.346-.15-.432-.1-.088-.264-.132-.494-.132-.232 0-.41.049-.534.147-.124.096-.19.239-.2.43l-.296-.003a.775.775 0 0 1 .286-.613c.184-.151.432-.227.744-.227.311 0 .547.067.708.2.161.134.242.329.242.586v1.416c0 .108.013.174.04.2.025.026.074.04.146.04h.058l.051-.006v.225a.898.898 0 0 1-.112.017.795.795 0 0 1-.102.007c-.124 0-.217-.03-.279-.09s-.093-.15-.093-.268v-.042m1.392-2.964v.745h.481v.244h-.48v1.892c0 .11.013.184.04.22.028.036.078.054.15.054.03 0 .065-.003.104-.008.04-.006.1-.018.184-.036l.002.239a1.632 1.632 0 0 1-.371.056c-.15 0-.256-.037-.317-.112-.062-.077-.093-.214-.093-.413v-1.892h-.354v-.244h.354v-.745zm1.138 2.1v.014c0 .318.076.571.23.76a.75.75 0 0 0 .614.28.792.792 0 0 0 .51-.163.693.693 0 0 0 .25-.452h.3a.935.935 0 0 1-.342.635c-.195.158-.44.237-.737.237-.353 0-.63-.12-.83-.359-.2-.24-.3-.571-.3-.996 0-.433.1-.77.3-1.013.202-.243.482-.364.84-.364.348 0 .619.116.813.35.195.23.293.554.293.97v.1h-1.941m.005-.24l1.626.002c-.013-.287-.092-.512-.235-.674a.71.71 0 0 0-.566-.247.746.746 0 0 0-.581.25c-.148.165-.23.388-.244.668m4.136.122c-.08.03-.183.053-.308.071a7.46 7.46 0 0 1-.6.049.987.987 0 0 0-.435.215.445.445 0 0 0-.147.334.44.44 0 0 0 .156.354.652.652 0 0 0 .43.132c.275 0 .494-.07.657-.212a.737.737 0 0 0 .246-.584v-.359m.02.984a1.405 1.405 0 0 1-.444.332 1.22 1.22 0 0 1-.516.11c-.262 0-.47-.068-.627-.205a.694.694 0 0 1-.232-.547.71.71 0 0 1 .105-.388.725.725 0 0 1 .31-.261c.155-.07.413-.12.774-.147l.159-.012.085-.017c.248-.05.371-.157.371-.32 0-.202-.05-.346-.151-.432-.1-.088-.264-.132-.493-.132-.233 0-.411.049-.535.147-.124.096-.19.239-.2.43l-.296-.003a.775.775 0 0 1 .286-.613c.184-.151.432-.227.745-.227.31 0 .547.067.708.2.16.134.241.329.241.586v1.416c0 .108.013.174.04.2.026.026.074.04.146.04h.059l.05-.006v.225a.898.898 0 0 1-.111.017.795.795 0 0 1-.103.007c-.124 0-.216-.03-.278-.09s-.093-.15-.093-.268zm2.519-.918c0 .348.077.619.23.81.155.193.37.289.644.289.284 0 .501-.095.652-.283.153-.19.23-.463.23-.816 0-.351-.077-.622-.23-.813-.153-.192-.37-.288-.652-.288-.28 0-.495.095-.646.286-.152.188-.228.46-.228.815M47.7 54.83v3.596h-.3v-.44c-.1.17-.227.298-.381.384a1.087 1.087 0 0 1-.535.127c-.35 0-.627-.122-.83-.366-.204-.244-.305-.577-.305-.999 0-.421.103-.754.31-.998.208-.246.49-.37.844-.37.204 0 .38.044.53.13a.954.954 0 0 1 .366.386v-1.45zm.715.452v-.452h.298v.452zm0 3.144v-2.595h.298v2.595zm2.788-.896h.3c-.027.298-.137.533-.33.706-.191.17-.441.256-.749.256-.351 0-.629-.12-.832-.361-.202-.241-.303-.57-.303-.984 0-.43.103-.768.308-1.013.206-.246.489-.37.847-.37.291 0 .53.083.718.248.188.162.29.377.305.644h-.288a.686.686 0 0 0-.24-.454.737.737 0 0 0-.495-.17.744.744 0 0 0-.618.292c-.151.195-.227.46-.227.796 0 .343.077.615.23.815.154.2.36.3.62.3.202 0 .37-.062.505-.187a.839.839 0 0 0 .25-.518m1.188-2.444v.745h.481v.244h-.48v1.892c0 .11.013.184.04.22.028.036.078.054.15.054.03 0 .065-.003.104-.008.04-.006.1-.018.184-.036l.002.239a1.632 1.632 0 0 1-.371.056c-.15 0-.256-.037-.317-.112-.062-.077-.093-.214-.093-.413v-1.892h-.354v-.244h.354v-.745zm2.993.744v2.596h-.29v-.415a.993.993 0 0 1-.364.366c-.142.08-.31.12-.505.12-.293 0-.514-.077-.662-.23-.147-.154-.22-.385-.22-.69V55.83h.3v1.675c0 .258.05.442.147.551.098.11.26.164.488.164.25 0 .445-.076.589-.227.145-.153.217-.362.217-.628V55.83zm.675 2.596v-2.595h.28v.43a.954.954 0 0 1 .342-.367.91.91 0 0 1 .483-.13c.194 0 .355.046.483.135a.63.63 0 0 1 .257.376.934.934 0 0 1 .342-.378.924.924 0 0 1 .493-.132c.281 0 .491.07.63.212.14.14.21.354.21.64v1.81h-.306V56.64c0-.218-.042-.374-.127-.468-.084-.095-.223-.142-.417-.142-.23 0-.413.07-.552.212a.763.763 0 0 0-.207.557v1.626h-.3V56.67c0-.215-.045-.375-.135-.479s-.227-.156-.412-.156a.74.74 0 0 0-.555.217.784.784 0 0 0-.21.57v1.603zm4.06-.808h.3a.594.594 0 0 0 .202.437.73.73 0 0 0 .493.166c.217 0 .387-.042.51-.127a.403.403 0 0 0 .188-.35c0-.209-.23-.37-.69-.48a.074.074 0 0 0-.013-.002c-.37-.09-.62-.188-.747-.296a.56.56 0 0 1-.188-.45c0-.222.082-.403.247-.541.166-.14.382-.21.647-.21.291 0 .523.073.696.22.172.145.267.346.285.605h-.305a.558.558 0 0 0-.198-.41c-.118-.1-.28-.149-.483-.149a.679.679 0 0 0-.425.122.387.387 0 0 0-.159.322c0 .232.236.402.708.513l.14.032c.296.073.502.164.617.273.116.11.174.262.174.46a.644.644 0 0 1-.274.536c-.18.139-.419.208-.715.208-.301 0-.543-.08-.725-.24a.844.844 0 0 1-.286-.639m2.966-2.532v.745h.481v.244h-.48v1.892c0 .11.013.184.04.22.029.036.078.054.15.054.03 0 .066-.003.105-.008.039-.006.1-.018.183-.036l.002.239a1.632 1.632 0 0 1-.37.056c-.15 0-.256-.037-.318-.112-.062-.077-.093-.214-.093-.413v-1.892h-.354v-.244h.354v-.745zm1.128 3.34v-.444h.33v.444zm3.401 0l-1.25-3.596h.344l1.087 3.176 1.084-3.176h.334l-1.245 3.596zm1.931-1.24v.014c0 .318.077.571.23.76.153.187.358.28.615.28a.792.792 0 0 0 .51-.163.693.693 0 0 0 .25-.452h.3a.935.935 0 0 1-.342.635c-.195.158-.441.237-.737.237-.354 0-.63-.12-.83-.359-.2-.24-.3-.571-.3-.996 0-.433.1-.77.3-1.013.201-.243.481-.364.84-.364.348 0 .619.116.812.35.196.23.293.554.293.97v.1h-1.94m.004-.24l1.626.002c-.013-.287-.09-.512-.234-.674a.71.71 0 0 0-.566-.247.746.746 0 0 0-.582.25c-.148.165-.229.388-.244.668m2.356.674h.3a.594.594 0 0 0 .203.437.73.73 0 0 0 .493.166c.217 0 .387-.042.51-.127a.403.403 0 0 0 .189-.35c0-.209-.23-.37-.691-.48a.074.074 0 0 0-.013-.002c-.37-.09-.62-.188-.747-.296a.56.56 0 0 1-.188-.45c0-.222.083-.403.247-.541.166-.14.382-.21.647-.21.291 0 .523.073.696.22.172.145.267.346.285.605h-.305a.558.558 0 0 0-.198-.41c-.118-.1-.28-.149-.483-.149a.679.679 0 0 0-.425.122.387.387 0 0 0-.158.322c0 .232.236.402.708.513l.139.032c.296.073.502.164.617.273.116.11.174.262.174.46a.642.642 0 0 1-.274.536c-.18.139-.419.208-.715.208-.301 0-.543-.08-.725-.24a.844.844 0 0 1-.286-.639m2.967-2.532v.745h.48v.244h-.48v1.892c0 .11.013.184.041.22s.077.054.149.054c.03 0 .066-.003.105-.008.039-.006.1-.018.183-.036l.002.239a1.632 1.632 0 0 1-.37.056c-.15 0-.256-.037-.318-.112-.062-.077-.093-.214-.093-.413v-1.892h-.354v-.244h.354v-.745h.3m.994.196v-.452h.298v.452zm0 3.144v-2.595h.298v2.595zm1.289-1.294c0 .345.078.615.232.808.156.194.372.29.647.29.282 0 .498-.094.65-.282.151-.19.227-.463.227-.816 0-.351-.077-.622-.23-.813-.151-.192-.367-.288-.647-.288-.281 0-.499.095-.652.286-.151.19-.227.462-.227.815m-.285 1.294V54.83h.3v1.462a1.01 1.01 0 0 1 .373-.395c.152-.088.33-.132.538-.132.354 0 .634.122.84.366s.31.578.31 1.001c0 .422-.106.755-.315.999s-.494.366-.855.366c-.2 0-.377-.044-.53-.132a.96.96 0 0 1-.361-.388v.45zm4.922-2.596v2.596H81.5v-.415a.993.993 0 0 1-.364.366c-.141.08-.31.12-.505.12-.293 0-.514-.077-.662-.23-.146-.154-.22-.385-.22-.69V55.83h.3v1.675c0 .258.05.442.147.551.098.11.26.164.489.164.249 0 .445-.076.588-.227.145-.153.217-.362.217-.628V55.83zm.705 2.596V54.83h.298v3.596zm3.035-2.596v2.596h-.29v-.415a.993.993 0 0 1-.365.366c-.141.08-.31.12-.505.12-.293 0-.513-.077-.662-.23-.146-.154-.22-.385-.22-.69V55.83h.301v1.675c0 .258.049.442.147.551.097.11.26.164.488.164.249 0 .445-.076.588-.227.145-.153.217-.362.217-.628V55.83zm.674 2.596v-2.595h.28v.43a.954.954 0 0 1 .342-.367.91.91 0 0 1 .484-.13c.193 0 .354.046.483.135a.63.63 0 0 1 .256.376.934.934 0 0 1 .342-.378.924.924 0 0 1 .493-.132c.282 0 .492.07.63.212.14.14.21.354.21.64v1.81h-.305V56.64c0-.218-.042-.374-.127-.468-.085-.095-.224-.142-.418-.142-.229 0-.413.07-.551.212a.763.763 0 0 0-.208.557v1.626h-.3V56.67c0-.215-.045-.375-.134-.479-.09-.104-.227-.156-.413-.156a.74.74 0 0 0-.554.217.784.784 0 0 0-.21.57v1.603zm-53.133 16l-1.25-3.596h.344l1.087 3.176 1.084-3.176h.334l-1.245 3.596zm1.963-3.144v-.452h.298v.452zm0 3.144v-2.595h.298v2.595zm1.66 0l-.976-2.595h.324l.83 2.229.816-2.23H38l-.97 2.596zm1.834-1.24v.014c0 .318.076.571.23.76a.75.75 0 0 0 .615.28.792.792 0 0 0 .51-.163.693.693 0 0 0 .249-.452h.3a.935.935 0 0 1-.342.635c-.195.158-.44.237-.737.237-.353 0-.63-.12-.83-.359-.2-.24-.3-.571-.3-.996 0-.433.1-.77.3-1.013.202-.243.482-.364.84-.364.348 0 .619.116.813.35.195.23.293.554.293.97v.1H38.53m.005-.24l1.626.002c-.013-.287-.091-.512-.235-.674a.71.71 0 0 0-.566-.247.746.746 0 0 0-.581.25c-.148.165-.23.388-.244.668M41 74.426v-2.595h.291v.454a.852.852 0 0 1 .31-.39.885.885 0 0 1 .49-.13h.035v.315h-.04c-.258 0-.452.076-.583.23-.128.152-.192.381-.192.685v1.431zm1.534 0v-2.595h.29v.454a.852.852 0 0 1 .31-.39.885.885 0 0 1 .491-.13h.034v.315h-.039c-.259 0-.453.076-.583.23-.129.152-.193.381-.193.685v1.431zm3.203-1.36c-.08.03-.182.053-.308.071a7.465 7.465 0 0 1-.6.049.987.987 0 0 0-.435.215.445.445 0 0 0-.146.334.44.44 0 0 0 .156.354.652.652 0 0 0 .43.132c.275 0 .493-.07.656-.212.165-.144.247-.338.247-.584zm.02.984a1.405 1.405 0 0 1-.445.332 1.22 1.22 0 0 1-.515.11c-.262 0-.471-.068-.628-.205a.694.694 0 0 1-.232-.547.71.71 0 0 1 .105-.388.725.725 0 0 1 .31-.261c.155-.07.413-.12.774-.147l.16-.012.085-.017c.247-.05.37-.157.37-.32 0-.202-.05-.346-.15-.432-.1-.088-.264-.132-.494-.132-.233 0-.41.049-.535.147-.123.096-.19.239-.2.43l-.295-.003a.775.775 0 0 1 .286-.613c.183-.151.432-.227.744-.227.311 0 .547.067.708.2.161.134.242.329.242.586v1.416c0 .108.013.174.039.2s.075.04.146.04h.059l.051-.006v.225a.898.898 0 0 1-.112.017.795.795 0 0 1-.103.007c-.123 0-.216-.03-.278-.09s-.093-.15-.093-.268v-.042m2.981.376l-.976-2.595h.324l.83 2.229.816-2.23h.31l-.97 2.596zm3.328-1.36c-.08.03-.182.053-.308.071a7.465 7.465 0 0 1-.6.049.987.987 0 0 0-.435.215.445.445 0 0 0-.146.334.44.44 0 0 0 .156.354.652.652 0 0 0 .43.132c.275 0 .494-.07.656-.212.165-.144.247-.338.247-.584zm.02.984a1.405 1.405 0 0 1-.445.332 1.22 1.22 0 0 1-.515.11c-.262 0-.471-.068-.627-.205a.694.694 0 0 1-.232-.547.71.71 0 0 1 .105-.388.725.725 0 0 1 .31-.261c.154-.07.412-.12.774-.147l.158-.012.086-.017c.247-.05.37-.157.37-.32 0-.202-.05-.346-.15-.432-.1-.088-.264-.132-.494-.132-.232 0-.41.049-.534.147-.124.096-.19.239-.2.43l-.296-.003a.775.775 0 0 1 .286-.613c.184-.151.432-.227.744-.227.311 0 .547.067.708.2.161.134.242.329.242.586v1.416c0 .108.013.174.04.2.025.026.074.04.146.04h.058l.051-.006v.225a.898.898 0 0 1-.112.017.795.795 0 0 1-.102.007c-.124 0-.217-.03-.279-.09s-.093-.15-.093-.268v-.042m.996.376v-2.595h.291v.454a.852.852 0 0 1 .31-.39.885.885 0 0 1 .49-.13h.035v.315h-.039c-.259 0-.453.076-.584.23-.128.152-.192.381-.192.685v1.431h-.31m1.565-3.144v-.452h.297v.452zm0 3.144v-2.595h.297v2.595zm3.034-2.596v2.596h-.29v-.415a.993.993 0 0 1-.364.366c-.142.08-.31.12-.505.12-.293 0-.514-.077-.662-.23-.147-.154-.22-.385-.22-.69V71.83h.3v1.675c0 .258.05.442.147.551.098.11.26.164.488.164.25 0 .445-.076.589-.227.144-.153.217-.362.217-.628V71.83zm.564 1.788h.3a.594.594 0 0 0 .203.437.73.73 0 0 0 .493.166c.217 0 .387-.042.51-.127a.403.403 0 0 0 .188-.35c0-.209-.23-.37-.69-.48a.074.074 0 0 0-.013-.002c-.37-.09-.62-.188-.747-.296a.56.56 0 0 1-.188-.45c0-.222.082-.403.247-.541.166-.14.382-.21.647-.21.291 0 .523.073.696.22.172.145.267.346.285.605h-.305a.558.558 0 0 0-.198-.41c-.118-.1-.28-.149-.483-.149a.679.679 0 0 0-.425.122.387.387 0 0 0-.159.322c0 .232.236.402.708.513l.14.032c.296.073.502.164.617.273.116.11.174.262.174.46a.644.644 0 0 1-.274.536c-.18.139-.419.208-.715.208-.301 0-.543-.08-.725-.24a.844.844 0 0 1-.286-.639m4.075-.432v.014c0 .318.076.571.23.76a.75.75 0 0 0 .615.28.792.792 0 0 0 .51-.163.693.693 0 0 0 .249-.452h.3a.935.935 0 0 1-.342.635c-.195.158-.44.237-.737.237-.353 0-.63-.12-.83-.359-.2-.24-.3-.571-.3-.996 0-.433.1-.77.3-1.013.202-.243.482-.364.84-.364.348 0 .62.116.813.35.195.23.293.554.293.97v.1h-1.941m.005-.24l1.626.002c-.013-.287-.091-.512-.235-.674a.71.71 0 0 0-.566-.247.746.746 0 0 0-.581.25c-.148.165-.23.388-.244.668m2.466 1.482v-2.595h.29v.415a.99.99 0 0 1 .361-.359.99.99 0 0 1 .498-.122c.18 0 .337.032.472.095a.703.703 0 0 1 .31.271c.037.06.064.134.08.22.017.085.025.224.025.42v1.655h-.31v-1.609c0-.304-.048-.51-.142-.617-.093-.11-.257-.164-.493-.164-.243 0-.435.077-.576.232-.14.153-.21.362-.21.627v1.531zm2.727-3.144v-.452h.297v.452zm0 3.144v-2.595h.297v2.595zm1.003 0v-2.595h.28v.43a.954.954 0 0 1 .343-.367.91.91 0 0 1 .483-.13c.194 0 .355.046.483.135a.63.63 0 0 1 .257.376.934.934 0 0 1 .342-.378.924.924 0 0 1 .493-.132c.281 0 .491.07.63.212.14.14.21.354.21.64v1.81h-.306V72.64c0-.218-.042-.374-.127-.468-.084-.095-.223-.142-.417-.142-.23 0-.413.07-.552.212a.763.763 0 0 0-.207.557v1.626h-.3V72.67c0-.215-.045-.375-.135-.479s-.227-.156-.413-.156a.74.74 0 0 0-.554.217.784.784 0 0 0-.21.57v1.603zm4.336 0v-.444h.33v.444zm2.385-1.089h.33c.003.283.093.503.268.66.176.156.424.234.743.234.28 0 .5-.063.659-.188a.629.629 0 0 0 .241-.523c0-.205-.056-.361-.168-.468-.112-.108-.336-.205-.671-.291l-.342-.085c-.368-.095-.623-.214-.764-.36-.14-.146-.21-.35-.21-.615 0-.29.106-.524.32-.7.213-.176.498-.264.854-.264.378 0 .672.096.884.288.213.192.322.46.327.806h-.335c-.004-.256-.084-.453-.239-.591-.154-.14-.372-.21-.652-.21-.263 0-.468.06-.612.178a.616.616 0 0 0-.218.503c0 .165.047.295.142.39.094.095.25.17.469.225l.42.105c.415.105.706.236.874.396.167.16.251.38.251.66 0 .321-.11.575-.332.76-.22.186-.52.28-.903.28-.428 0-.758-.1-.99-.301-.23-.202-.346-.49-.346-.864zm3.309-.151v.014c0 .318.076.571.229.76.153.187.358.28.615.28a.792.792 0 0 0 .51-.163.693.693 0 0 0 .25-.452h.3a.935.935 0 0 1-.342.635c-.195.158-.441.237-.737.237-.354 0-.63-.12-.83-.359-.2-.24-.3-.571-.3-.996 0-.433.1-.77.3-1.013.201-.243.481-.364.84-.364.348 0 .619.116.812.35.196.23.293.554.293.97v.1h-1.94m.004-.24l1.626.002c-.013-.287-.091-.512-.234-.674a.71.71 0 0 0-.567-.247.746.746 0 0 0-.58.25c-.149.165-.23.388-.245.668m2.661.188c0 .348.077.619.23.81.154.193.37.289.644.289.284 0 .5-.095.652-.283.153-.19.23-.463.23-.816 0-.351-.077-.622-.23-.813-.153-.192-.37-.288-.652-.288-.28 0-.495.095-.647.286-.151.188-.227.46-.227.815m2.032-2.302v3.596h-.3v-.44c-.1.17-.227.298-.382.384a1.087 1.087 0 0 1-.534.127c-.35 0-.627-.122-.83-.366-.204-.244-.305-.577-.305-.999 0-.421.103-.754.31-.998.208-.246.49-.37.844-.37.204 0 .38.044.53.13a.954.954 0 0 1 .366.386v-1.45zm3.681 2.236c-.08.03-.182.053-.307.071a7.465 7.465 0 0 1-.601.049.987.987 0 0 0-.435.215.445.445 0 0 0-.146.334.44.44 0 0 0 .156.354.652.652 0 0 0 .43.132c.275 0 .494-.07.657-.212a.737.737 0 0 0 .246-.584zm.02.984a1.405 1.405 0 0 1-.445.332 1.22 1.22 0 0 1-.515.11c-.262 0-.47-.068-.627-.205a.694.694 0 0 1-.232-.547.71.71 0 0 1 .105-.388.725.725 0 0 1 .31-.261c.155-.07.413-.12.774-.147l.159-.012.085-.017c.247-.05.371-.157.371-.32 0-.202-.05-.346-.151-.432-.1-.088-.264-.132-.493-.132-.233 0-.411.049-.535.147-.124.096-.19.239-.2.43l-.296-.003a.775.775 0 0 1 .286-.613c.184-.151.432-.227.745-.227.31 0 .546.067.708.2.16.134.241.329.241.586v1.416c0 .108.013.174.04.2.025.026.074.04.146.04h.058l.052-.006v.225a.898.898 0 0 1-.113.017.795.795 0 0 1-.102.007c-.124 0-.217-.03-.278-.09-.062-.06-.093-.15-.093-.268zm1.392-2.964v.745h.48v.244h-.48v1.892c0 .11.013.184.04.22.029.036.078.054.15.054.03 0 .066-.003.105-.008.039-.006.1-.018.183-.036l.002.239a1.632 1.632 0 0 1-.37.056c-.15 0-.256-.037-.318-.112-.062-.077-.093-.214-.093-.413v-1.892h-.354v-.244h.354v-.745h.3m2.686 0v.745h.48v.244h-.48v1.892c0 .11.014.184.041.22.028.036.078.054.15.054.03 0 .065-.003.104-.008.04-.006.1-.018.183-.036l.003.239a1.632 1.632 0 0 1-.371.056c-.15 0-.256-.037-.318-.112-.062-.077-.092-.214-.092-.413v-1.892h-.354v-.244h.354v-.745zm2.993.744v2.596h-.29v-.415a.993.993 0 0 1-.364.366c-.142.08-.31.12-.506.12-.293 0-.513-.077-.661-.23-.147-.154-.22-.385-.22-.69V71.83h.3v1.675c0 .258.05.442.147.551.097.11.26.164.488.164.25 0 .445-.076.588-.227.145-.153.218-.362.218-.628V71.83zm.674 2.596v-2.595h.29v.454a.852.852 0 0 1 .31-.39.885.885 0 0 1 .491-.13h.034v.315h-.039c-.258 0-.453.076-.583.23-.129.152-.193.381-.193.685v1.431zm1.833-1.294c0 .344.078.613.232.808.155.194.369.29.642.29.284 0 .5-.094.652-.285.153-.19.23-.461.23-.813 0-.351-.077-.622-.23-.813-.153-.192-.37-.288-.652-.288-.28 0-.495.095-.647.286-.15.19-.227.462-.227.815m-.29 2.339v-3.64h.305v.466a.994.994 0 0 1 .369-.4c.148-.088.327-.132.537-.132.356 0 .637.122.842.366.205.243.308.576.308 1.001s-.104.759-.313 1.001c-.207.243-.49.364-.852.364-.2 0-.373-.043-.52-.13a1.05 1.05 0 0 1-.371-.39v1.494zm2.922-4.189v-.452h.298v.452zm0 3.144v-2.595h.298v2.595zm.893-.808h.301a.594.594 0 0 0 .203.437.73.73 0 0 0 .493.166c.216 0 .386-.042.51-.127a.403.403 0 0 0 .188-.35c0-.209-.23-.37-.69-.48a.087.087 0 0 0-.013-.002c-.371-.09-.62-.188-.747-.296a.56.56 0 0 1-.188-.45c0-.222.082-.403.247-.541.166-.14.381-.21.647-.21.29 0 .523.073.695.22.173.145.268.346.286.605h-.305a.558.558 0 0 0-.198-.41c-.119-.1-.28-.149-.483-.149-.178 0-.32.04-.425.122s-.159.189-.159.322c0 .232.236.402.708.513l.14.032c.296.073.501.164.617.273.116.11.173.262.173.46a.64.64 0 0 1-.273.536c-.18.139-.42.208-.715.208-.302 0-.543-.08-.726-.24a.844.844 0 0 1-.285-.639m-68.56 8.808l-.976-2.595h.324l.83 2.229.816-2.23h.31l-.97 2.596zm1.689-3.144v-.452h.299v.452zm0 3.144v-2.595h.299v2.595zm1.4-3.34v.745h.48v.244h-.48v1.892c0 .11.013.184.041.22s.077.054.149.054c.03 0 .066-.003.105-.008.04-.006.1-.018.183-.036l.003.239a1.632 1.632 0 0 1-.372.056c-.15 0-.255-.037-.317-.112-.062-.077-.093-.214-.093-.413v-1.892h-.354v-.244h.354v-.745h.3m2.632 1.98c-.08.03-.182.053-.307.071a7.465 7.465 0 0 1-.6.049.987.987 0 0 0-.435.215.445.445 0 0 0-.147.334.44.44 0 0 0 .156.354.652.652 0 0 0 .43.132c.275 0 .494-.07.657-.212a.737.737 0 0 0 .246-.584zm.02.984a1.405 1.405 0 0 1-.444.332 1.22 1.22 0 0 1-.516.11c-.262 0-.47-.068-.627-.205a.694.694 0 0 1-.232-.547.71.71 0 0 1 .105-.388.725.725 0 0 1 .31-.261c.155-.07.413-.12.774-.147l.159-.012.085-.017c.248-.05.371-.157.371-.32 0-.202-.05-.346-.151-.432-.1-.088-.264-.132-.493-.132-.233 0-.411.049-.535.147-.124.096-.19.239-.2.43l-.295-.003a.775.775 0 0 1 .285-.613c.184-.151.432-.227.745-.227.31 0 .547.067.708.2.16.134.241.329.241.586v1.416c0 .108.014.174.04.2s.074.04.146.04h.059l.05-.006v.225a.898.898 0 0 1-.111.017.795.795 0 0 1-.103.007c-.124 0-.216-.03-.278-.09s-.093-.15-.093-.268zm1.172-.864v.014c0 .318.076.571.23.76a.75.75 0 0 0 .615.28.792.792 0 0 0 .51-.163.693.693 0 0 0 .249-.452h.3a.935.935 0 0 1-.342.635c-.195.158-.44.237-.737.237-.353 0-.63-.12-.83-.359-.2-.24-.3-.571-.3-.996 0-.433.1-.77.3-1.013.202-.243.482-.364.84-.364.348 0 .62.116.813.35.195.23.293.554.293.97v.1h-1.941m.005-.24l1.626.002c-.013-.287-.091-.512-.235-.674a.71.71 0 0 0-.566-.247.746.746 0 0 0-.581.25c-.148.165-.23.388-.244.668m4.45 1.482l-.976-2.595h.325l.83 2.229.815-2.23h.31l-.97 2.596zm1.834-1.24v.014c0 .318.076.571.23.76a.75.75 0 0 0 .615.28.792.792 0 0 0 .51-.163.693.693 0 0 0 .249-.452h.3a.935.935 0 0 1-.342.635c-.195.158-.44.237-.737.237-.353 0-.63-.12-.83-.359-.2-.24-.3-.571-.3-.996 0-.433.1-.77.3-1.013.202-.243.482-.364.84-.364.348 0 .62.116.813.35.195.23.293.554.293.97v.1h-1.941m.005-.24l1.626.002c-.013-.287-.091-.512-.235-.674a.71.71 0 0 0-.566-.247.746.746 0 0 0-.581.25c-.148.165-.23.388-.244.668m2.497 1.482V78.83h.298v3.596zm1.036-3.144v-.452h.297v.452zm0 3.144v-2.595h.297v2.595zm1.398-3.34v.745h.481v.244h-.48v1.892c0 .11.013.184.04.22.029.036.078.054.15.054.03 0 .066-.003.105-.008.039-.006.1-.018.183-.036l.002.239a1.632 1.632 0 0 1-.37.056c-.15 0-.256-.037-.318-.112-.062-.077-.093-.214-.093-.413v-1.892h-.354v-.244h.354v-.745zm2.466 2.1v.014c0 .318.077.571.23.76.153.187.358.28.615.28a.792.792 0 0 0 .51-.163.693.693 0 0 0 .25-.452h.3a.935.935 0 0 1-.342.635c-.196.158-.441.237-.738.237-.353 0-.63-.12-.83-.359-.2-.24-.3-.571-.3-.996 0-.433.1-.77.3-1.013.202-.243.482-.364.84-.364.349 0 .62.116.813.35.195.23.293.554.293.97v.1h-1.94m.004-.24l1.626.002c-.013-.287-.091-.512-.234-.674a.71.71 0 0 0-.567-.247.746.746 0 0 0-.58.25c-.149.165-.23.388-.245.668m4.497-1.114v2.596h-.29v-.415a.993.993 0 0 1-.364.366c-.142.08-.31.12-.505.12-.293 0-.514-.077-.662-.23-.147-.154-.22-.385-.22-.69V79.83h.3v1.675c0 .258.05.442.147.551.098.11.26.164.488.164.25 0 .445-.076.589-.227.144-.153.217-.362.217-.628V79.83zm.706-.548v-.452h.298v.452zm0 3.144v-2.595h.298v2.595zm.893-.808h.3a.594.594 0 0 0 .203.437.73.73 0 0 0 .493.166c.217 0 .387-.042.51-.127a.403.403 0 0 0 .189-.35c0-.209-.23-.37-.691-.48a.074.074 0 0 0-.012-.002c-.372-.09-.62-.188-.748-.296a.56.56 0 0 1-.188-.45c0-.222.083-.403.247-.541.166-.14.382-.21.647-.21.291 0 .523.073.696.22.172.145.268.346.285.605h-.305a.558.558 0 0 0-.197-.41c-.12-.1-.28-.149-.484-.149a.679.679 0 0 0-.425.122.387.387 0 0 0-.158.322c0 .232.236.402.708.513l.139.032c.296.073.502.164.617.273.116.11.174.262.174.46a.642.642 0 0 1-.274.536c-.18.139-.419.208-.715.208-.301 0-.543-.08-.725-.24a.844.844 0 0 1-.286-.639m2.571.808v-2.595h.28v.43a.954.954 0 0 1 .343-.367.91.91 0 0 1 .483-.13c.194 0 .355.046.483.135a.63.63 0 0 1 .257.376.934.934 0 0 1 .342-.378.924.924 0 0 1 .493-.132c.281 0 .491.07.63.212.14.14.21.354.21.64v1.81h-.306V80.64c0-.218-.042-.374-.127-.468-.084-.095-.223-.142-.417-.142-.23 0-.413.07-.552.212a.763.763 0 0 0-.207.557v1.626h-.3V80.67c0-.215-.045-.375-.135-.479s-.227-.156-.412-.156a.74.74 0 0 0-.555.217.784.784 0 0 0-.21.57v1.603zm4.351-1.294c0 .348.076.619.23.81.154.193.37.289.649.289.281 0 .498-.095.651-.286.153-.19.23-.461.23-.813 0-.351-.077-.622-.23-.813-.153-.192-.37-.288-.651-.288-.279 0-.495.096-.65.288-.153.192-.23.463-.23.813m-.31 0c0-.434.104-.77.31-1.008.209-.24.502-.36.88-.36.379 0 .673.12.881.36.21.237.315.574.315 1.008 0 .431-.104.766-.313 1.004-.208.237-.503.356-.883.356-.378 0-.671-.118-.88-.354-.206-.238-.31-.573-.31-1.006m3.118 0c0 .348.077.619.23.81.154.193.37.289.644.289.284 0 .5-.095.652-.283.153-.19.23-.463.23-.816 0-.351-.077-.622-.23-.813-.153-.192-.37-.288-.652-.288-.28 0-.495.095-.647.286-.151.188-.227.46-.227.815m2.032-2.302v3.596h-.3v-.44c-.1.17-.227.298-.382.384a1.087 1.087 0 0 1-.534.127c-.35 0-.627-.122-.83-.366-.204-.244-.306-.577-.306-.999 0-.421.104-.754.31-.998.209-.246.49-.37.845-.37.204 0 .38.044.53.13a.954.954 0 0 1 .366.386v-1.45zm3.681 2.236c-.08.03-.182.053-.307.071a7.465 7.465 0 0 1-.601.049.987.987 0 0 0-.435.215.445.445 0 0 0-.146.334.44.44 0 0 0 .156.354.652.652 0 0 0 .43.132c.275 0 .494-.07.657-.212a.737.737 0 0 0 .246-.584zm.02.984a1.405 1.405 0 0 1-.445.332 1.22 1.22 0 0 1-.515.11c-.262 0-.47-.068-.627-.205a.694.694 0 0 1-.232-.547.71.71 0 0 1 .105-.388.725.725 0 0 1 .31-.261c.155-.07.413-.12.774-.147l.159-.012.085-.017c.247-.05.371-.157.371-.32 0-.202-.05-.346-.151-.432-.1-.088-.264-.132-.493-.132-.233 0-.411.049-.535.147-.124.096-.19.239-.2.43l-.296-.003a.775.775 0 0 1 .286-.613c.184-.151.432-.227.745-.227.31 0 .546.067.708.2.16.134.241.329.241.586v1.416c0 .108.013.174.04.2.025.026.074.04.146.04h.058l.052-.006v.225a.898.898 0 0 1-.113.017.795.795 0 0 1-.102.007c-.124 0-.217-.03-.278-.09-.062-.06-.093-.15-.093-.268zm1.028.376V78.83h.297v3.596zm1.035-3.144v-.452h.298v.452zm0 3.144v-2.595h.298v2.595zm1.189-1.294c0 .348.076.619.23.81.154.193.369.289.644.289.281 0 .499-.095.652-.286.153-.19.23-.461.23-.813 0-.35-.078-.62-.233-.813-.153-.192-.37-.288-.65-.288s-.495.095-.646.286c-.152.19-.227.462-.227.815m2.028-1.301v3.64h-.297v-1.509c-.096.178-.22.311-.371.4-.15.09-.327.135-.53.135-.355 0-.635-.121-.84-.364-.204-.242-.305-.576-.305-1 0-.427.102-.762.307-1.004.207-.243.49-.364.848-.364.201 0 .376.043.522.13.146.084.27.213.369.385v-.45zm2.728-.001v2.596h-.291v-.415a.993.993 0 0 1-.364.366c-.141.08-.31.12-.505.12-.293 0-.514-.077-.662-.23-.146-.154-.22-.385-.22-.69V79.83h.3v1.675c0 .258.05.442.147.551.098.11.26.164.489.164.249 0 .445-.076.588-.227.145-.153.217-.362.217-.628V79.83zm.849 1.356v.014c0 .318.077.571.23.76.153.187.358.28.615.28a.792.792 0 0 0 .51-.163.693.693 0 0 0 .25-.452h.3a.935.935 0 0 1-.342.635c-.196.158-.441.237-.738.237-.353 0-.63-.12-.83-.359-.2-.24-.3-.571-.3-.996 0-.433.1-.77.3-1.013.202-.243.482-.364.84-.364.348 0 .62.116.813.35.195.23.293.554.293.97v.1h-1.94m.004-.24l1.626.002c-.013-.287-.091-.512-.234-.674a.71.71 0 0 0-.567-.247.746.746 0 0 0-.58.25c-.149.165-.23.388-.245.668m2.861-1.858v.745h.481v.244h-.48v1.892c0 .11.013.184.04.22.029.036.078.054.15.054.03 0 .066-.003.105-.008.039-.006.1-.018.183-.036l.002.239a1.632 1.632 0 0 1-.37.056c-.15 0-.256-.037-.318-.112-.062-.077-.093-.214-.093-.413v-1.892h-.354v-.244h.354v-.745zm1.128 3.34v-.444h.33v.444zM32.558 98.13h.696c.272 0 .47-.01.596-.029a.915.915 0 0 0 .312-.105.985.985 0 0 0 .408-.498c.09-.224.134-.513.134-.866 0-.337-.043-.617-.13-.84a1.019 1.019 0 0 0-.385-.506.873.873 0 0 0-.325-.124 3.908 3.908 0 0 0-.647-.037h-.657v3.006m.514-3.301h.244c.297 0 .519.015.667.046s.276.08.383.15c.222.14.39.346.506.62.117.271.175.597.175.976 0 .408-.063.752-.19 1.03a1.29 1.29 0 0 1-.564.62 1.236 1.236 0 0 1-.383.12 5.1 5.1 0 0 1-.694.034h-.988V94.83zm2.756 2.302c0 .348.076.619.23.81.154.193.37.289.648.289.282 0 .5-.095.652-.286.153-.19.23-.461.23-.813 0-.351-.077-.622-.23-.813-.153-.192-.37-.288-.652-.288-.278 0-.494.096-.649.288-.153.192-.23.463-.23.813m-.31 0c0-.434.104-.77.31-1.008.209-.24.502-.36.88-.36.379 0 .673.12.88.36.21.237.316.574.316 1.008 0 .431-.104.766-.313 1.004-.208.237-.503.356-.884.356-.377 0-.67-.118-.878-.354-.207-.238-.31-.573-.31-1.006m2.922 1.294v-2.595h.29v.415a.99.99 0 0 1 .362-.359.99.99 0 0 1 .498-.122c.179 0 .336.032.471.095a.703.703 0 0 1 .31.271c.037.06.064.134.08.22.017.085.025.224.025.42v1.655h-.31v-1.609c0-.304-.047-.51-.142-.617-.092-.11-.257-.164-.493-.164-.242 0-.434.077-.576.232-.14.153-.21.362-.21.627v1.531zm2.871-1.24v.014c0 .318.076.571.23.76.152.187.358.28.615.28a.792.792 0 0 0 .51-.163.693.693 0 0 0 .249-.452h.3a.935.935 0 0 1-.342.635c-.195.158-.44.237-.737.237-.353 0-.63-.12-.83-.359-.2-.24-.3-.571-.3-.996 0-.433.1-.77.3-1.013.202-.243.482-.364.84-.364.348 0 .62.116.813.35.195.23.293.554.293.97v.1h-1.941m.005-.24l1.626.002c-.013-.287-.091-.512-.235-.674a.71.71 0 0 0-.566-.247.746.746 0 0 0-.581.25c-.148.165-.23.388-.244.668m4.25.586h.3c-.027.298-.137.533-.329.706-.192.17-.442.256-.75.256-.351 0-.629-.12-.832-.361-.202-.241-.303-.57-.303-.984 0-.43.103-.768.308-1.013.207-.246.489-.37.847-.37.291 0 .53.083.718.248.189.162.29.377.305.644h-.288a.686.686 0 0 0-.24-.454.737.737 0 0 0-.495-.17.744.744 0 0 0-.618.292c-.151.195-.227.46-.227.796 0 .343.077.615.23.815.154.2.361.3.62.3.202 0 .37-.062.505-.187a.839.839 0 0 0 .25-.518m4.152-1.7v2.596h-.29v-.415a.993.993 0 0 1-.364.366c-.142.08-.31.12-.505.12-.293 0-.514-.077-.662-.23-.147-.154-.22-.385-.22-.69V95.83h.3v1.675c0 .258.05.442.147.551.098.11.26.164.488.164.25 0 .445-.076.589-.227.144-.153.217-.362.217-.628V95.83zm1.069-.744v.745h.481v.244h-.48v1.892c0 .11.013.184.041.22s.077.054.149.054c.03 0 .066-.003.105-.008.039-.006.1-.018.183-.036l.002.239a1.632 1.632 0 0 1-.37.056c-.15 0-.256-.037-.318-.112-.062-.077-.093-.214-.093-.413v-1.892h-.354v-.244h.354v-.745zm2.59 2.046c0 .344.078.613.233.808.154.194.368.29.642.29.283 0 .5-.094.652-.285.153-.19.23-.461.23-.813 0-.351-.077-.622-.23-.813-.153-.192-.37-.288-.652-.288-.28 0-.496.095-.647.286-.151.19-.227.462-.227.815m-.29 2.339v-3.64h.305v.466a.994.994 0 0 1 .368-.4c.148-.088.327-.132.537-.132.357 0 .637.122.843.366.205.243.307.576.307 1.001s-.104.759-.312 1.001c-.207.243-.491.364-.852.364a.999.999 0 0 1-.52-.13 1.05 1.05 0 0 1-.371-.39v1.494zm4.921-3.641v2.596h-.29v-.415a.993.993 0 0 1-.364.366c-.142.08-.31.12-.505.12-.293 0-.514-.077-.662-.23-.147-.154-.22-.385-.22-.69V95.83h.3v1.675c0 .258.05.442.147.551.098.11.26.164.488.164.25 0 .445-.076.589-.227.144-.153.217-.362.217-.628V95.83zm.674 2.596v-2.595h.29v.454a.852.852 0 0 1 .31-.39.885.885 0 0 1 .491-.13h.035v.315h-.04c-.258 0-.453.076-.583.23-.129.152-.193.381-.193.685v1.431zm3.564-2.596v2.596h-.29v-.415a.993.993 0 0 1-.364.366c-.141.08-.31.12-.505.12-.293 0-.514-.077-.662-.23-.146-.154-.22-.385-.22-.69V95.83h.3v1.675c0 .258.05.442.147.551.098.11.26.164.489.164.249 0 .445-.076.588-.227.145-.153.217-.362.217-.628V95.83zm.564 1.788h.3a.594.594 0 0 0 .203.437.73.73 0 0 0 .494.166c.216 0 .386-.042.51-.127a.403.403 0 0 0 .188-.35c0-.209-.23-.37-.691-.48a.074.074 0 0 0-.012-.002c-.371-.09-.62-.188-.747-.296a.56.56 0 0 1-.188-.45c0-.222.082-.403.246-.541.166-.14.382-.21.647-.21.291 0 .523.073.696.22.172.145.268.346.286.605h-.306a.558.558 0 0 0-.197-.41c-.12-.1-.28-.149-.484-.149a.679.679 0 0 0-.425.122.387.387 0 0 0-.158.322c0 .232.236.402.708.513l.139.032c.296.073.502.164.618.273.115.11.173.262.173.46a.643.643 0 0 1-.273.536c-.181.139-.42.208-.716.208-.3 0-.543-.08-.725-.24a.844.844 0 0 1-.286-.639m2.737.808v-.444h.33v.444zm2.886-1.86h.77c.354 0 .609-.057.763-.171.155-.116.232-.302.232-.56 0-.243-.069-.422-.207-.536-.139-.116-.354-.174-.647-.174h-.911zm-.33 1.86V94.83h1.255c.393 0 .687.085.884.254.197.17.296.421.296.757 0 .346-.111.604-.333.774-.22.167-.555.251-1.008.251h-.764v1.56zm2.953 0V94.83h.304v1.406a.988.988 0 0 1 .36-.351.994.994 0 0 1 .495-.12c.172 0 .327.032.464.098a.73.73 0 0 1 .312.268.666.666 0 0 1 .08.227 3.1 3.1 0 0 1 .025.488v1.58h-.305v-1.575c0-.324-.046-.54-.14-.649-.092-.11-.257-.166-.495-.166a.754.754 0 0 0-.58.234c-.144.155-.216.363-.216.625v1.531h-.305m4.375-1.36c-.08.03-.182.053-.308.071a7.465 7.465 0 0 1-.6.049.987.987 0 0 0-.435.215.445.445 0 0 0-.146.334.44.44 0 0 0 .156.354.652.652 0 0 0 .43.132c.275 0 .494-.07.657-.212a.737.737 0 0 0 .246-.584zm.02.984a1.405 1.405 0 0 1-.445.332 1.22 1.22 0 0 1-.515.11c-.262 0-.471-.068-.627-.205a.694.694 0 0 1-.232-.547.71.71 0 0 1 .105-.388.725.725 0 0 1 .31-.261c.154-.07.412-.12.774-.147l.158-.012.086-.017c.247-.05.371-.157.371-.32 0-.202-.05-.346-.151-.432-.1-.088-.264-.132-.494-.132-.232 0-.41.049-.534.147-.124.096-.19.239-.2.43l-.296-.003a.775.775 0 0 1 .286-.613c.184-.151.432-.227.744-.227.311 0 .547.067.708.2.162.134.242.329.242.586v1.416c0 .108.013.174.04.2.025.026.074.04.146.04h.058l.052-.006v.225a.898.898 0 0 1-.113.017.795.795 0 0 1-.102.007c-.124 0-.217-.03-.279-.09-.061-.06-.092-.15-.092-.268zm.886-.432h.3a.594.594 0 0 0 .203.437.73.73 0 0 0 .493.166c.216 0 .386-.042.51-.127a.403.403 0 0 0 .188-.35c0-.209-.23-.37-.69-.48a.074.074 0 0 0-.013-.002c-.371-.09-.62-.188-.747-.296a.56.56 0 0 1-.188-.45c0-.222.082-.403.247-.541.166-.14.381-.21.647-.21.29 0 .523.073.695.22.173.145.268.346.286.605h-.305a.558.558 0 0 0-.198-.41c-.119-.1-.28-.149-.483-.149a.679.679 0 0 0-.425.122.387.387 0 0 0-.159.322c0 .232.236.402.708.513l.14.032c.296.073.501.164.617.273.116.11.173.262.173.46a.64.64 0 0 1-.273.536c-.18.139-.42.208-.715.208-.302 0-.543-.08-.726-.24a.844.844 0 0 1-.285-.639m2.746-.432v.014c0 .318.077.571.23.76.153.187.358.28.615.28a.792.792 0 0 0 .51-.163.693.693 0 0 0 .25-.452h.3a.935.935 0 0 1-.342.635c-.195.158-.441.237-.737.237-.354 0-.63-.12-.83-.359-.2-.24-.3-.571-.3-.996 0-.433.1-.77.3-1.013.201-.243.481-.364.84-.364.348 0 .619.116.812.35.196.23.293.554.293.97v.1h-1.94m.004-.24l1.626.002c-.013-.287-.09-.512-.234-.674a.71.71 0 0 0-.566-.247.746.746 0 0 0-.582.25c-.148.165-.229.388-.244.668m2.498 1.482V94.83h.298v3.596zm1.035 0V94.83h.298v3.596zm3.035-2.596v2.596h-.29v-.415a.993.993 0 0 1-.365.366c-.141.08-.31.12-.505.12-.293 0-.513-.077-.662-.23-.146-.154-.22-.385-.22-.69V95.83h.301v1.675c0 .258.049.442.146.551.098.11.26.164.489.164.249 0 .445-.076.588-.227.145-.153.217-.362.217-.628V95.83zm.564 1.788h.3a.594.594 0 0 0 .203.437.73.73 0 0 0 .493.166c.216 0 .386-.042.51-.127a.403.403 0 0 0 .188-.35c0-.209-.23-.37-.69-.48a.074.074 0 0 0-.013-.002c-.371-.09-.62-.188-.747-.296a.56.56 0 0 1-.188-.45c0-.222.082-.403.246-.541.166-.14.382-.21.647-.21.292 0 .524.073.696.22.173.145.268.346.286.605h-.305a.558.558 0 0 0-.198-.41c-.119-.1-.28-.149-.484-.149a.679.679 0 0 0-.424.122.387.387 0 0 0-.159.322c0 .232.236.402.708.513l.14.032c.295.073.501.164.617.273.115.11.173.262.173.46a.643.643 0 0 1-.273.536c-.18.139-.42.208-.716.208-.3 0-.542-.08-.725-.24a.844.844 0 0 1-.285-.639m3.899.808v-2.595h.28v.43a.954.954 0 0 1 .342-.367.91.91 0 0 1 .484-.13c.193 0 .354.046.483.135a.63.63 0 0 1 .256.376.934.934 0 0 1 .342-.378.924.924 0 0 1 .493-.132c.282 0 .492.07.63.212.14.14.21.354.21.64v1.81h-.305V96.64c0-.218-.042-.374-.127-.468-.085-.095-.224-.142-.418-.142-.229 0-.413.07-.551.212a.763.763 0 0 0-.208.557v1.626h-.3V96.67c0-.215-.045-.375-.134-.479-.09-.104-.227-.156-.413-.156a.74.74 0 0 0-.554.217.784.784 0 0 0-.21.57v1.603zm5.839-1.36c-.08.03-.182.053-.307.071a7.465 7.465 0 0 1-.6.049.987.987 0 0 0-.435.215.445.445 0 0 0-.147.334.44.44 0 0 0 .156.354.652.652 0 0 0 .43.132c.275 0 .494-.07.657-.212a.737.737 0 0 0 .246-.584zm.02.984a1.405 1.405 0 0 1-.444.332 1.22 1.22 0 0 1-.516.11c-.262 0-.47-.068-.627-.205a.694.694 0 0 1-.232-.547.71.71 0 0 1 .105-.388.725.725 0 0 1 .31-.261c.155-.07.413-.12.774-.147l.159-.012.085-.017c.248-.05.371-.157.371-.32 0-.202-.05-.346-.151-.432-.1-.088-.264-.132-.493-.132-.233 0-.411.049-.535.147-.124.096-.19.239-.2.43l-.295-.003a.775.775 0 0 1 .285-.613c.184-.151.432-.227.745-.227.31 0 .547.067.708.2.16.134.241.329.241.586v1.416c0 .108.014.174.04.2s.074.04.146.04h.059l.05-.006v.225a.898.898 0 0 1-.111.017.795.795 0 0 1-.103.007c-.124 0-.216-.03-.278-.09s-.093-.15-.093-.268zm1.191-.918c0 .344.078.614.232.81.157.196.37.294.642.294.279 0 .495-.097.65-.29.154-.195.232-.466.232-.814 0-.35-.078-.62-.232-.813-.153-.192-.37-.288-.65-.288s-.495.095-.647.286c-.151.19-.227.462-.227.815m2.032-1.301v2.46c0 .396-.105.695-.313.897-.207.202-.513.303-.918.303-.303 0-.548-.069-.735-.206a.722.722 0 0 1-.305-.554h.308c.018.158.088.28.212.364.125.085.297.127.515.127.313 0 .547-.077.703-.232.158-.155.237-.384.237-.688v-.32a1.088 1.088 0 0 1-.386.388c-.15.085-.323.127-.52.127-.356 0-.637-.121-.842-.364-.205-.244-.307-.578-.307-1 0-.42.103-.754.31-1 .208-.245.488-.368.84-.368.2 0 .375.043.524.13.15.086.275.214.376.385v-.45zm.673 2.595v-2.595h.291v.415a.99.99 0 0 1 .361-.359.99.99 0 0 1 .498-.122c.18 0 .336.032.472.095a.703.703 0 0 1 .31.271c.037.06.064.134.08.22.016.085.025.224.025.42v1.655h-.31v-1.609c0-.304-.048-.51-.142-.617-.093-.11-.257-.164-.493-.164-.243 0-.435.077-.576.232-.14.153-.21.362-.21.627v1.531zm4.366-1.36c-.08.03-.183.053-.308.071a7.465 7.465 0 0 1-.6.049.987.987 0 0 0-.435.215.445.445 0 0 0-.147.334.44.44 0 0 0 .157.354.652.652 0 0 0 .43.132c.274 0 .493-.07.656-.212a.737.737 0 0 0 .247-.584zm.02.984a1.405 1.405 0 0 1-.445.332 1.22 1.22 0 0 1-.515.11c-.262 0-.471-.068-.628-.205a.694.694 0 0 1-.232-.547.71.71 0 0 1 .105-.388.725.725 0 0 1 .31-.261c.155-.07.413-.12.774-.147l.159-.012.085-.017c.248-.05.371-.157.371-.32 0-.202-.05-.346-.15-.432-.1-.088-.265-.132-.494-.132-.233 0-.411.049-.535.147-.123.096-.19.239-.2.43l-.295-.003a.776.776 0 0 1 .285-.613c.184-.151.432-.227.745-.227.31 0 .547.067.708.2.161.134.242.329.242.586v1.416c0 .108.013.174.039.2s.075.04.146.04h.059l.051-.006v.225a.898.898 0 0 1-.112.017.794.794 0 0 1-.103.007c-.123 0-.216-.03-.278-.09s-.093-.15-.093-.268v-.042m-73.537 7.568h.3a.595.595 0 0 0 .203.437.73.73 0 0 0 .493.166c.216 0 .386-.042.51-.127a.403.403 0 0 0 .188-.35c0-.209-.23-.37-.691-.48l-.012-.002c-.371-.09-.62-.188-.747-.295a.56.56 0 0 1-.188-.45c0-.223.082-.403.246-.542.166-.14.382-.21.647-.21.292 0 .524.074.696.22.173.145.268.347.286.606h-.305a.558.558 0 0 0-.198-.41c-.119-.1-.28-.15-.484-.15a.68.68 0 0 0-.424.123.387.387 0 0 0-.16.322c0 .231.237.402.709.513.062.014.108.025.14.031.295.073.501.165.617.274.115.109.173.262.173.459 0 .22-.091.398-.273.537-.181.138-.42.207-.716.207-.3 0-.542-.08-.725-.239a.844.844 0 0 1-.285-.64m2.746-.432v.015c0 .317.077.57.23.759.153.187.358.28.615.28a.792.792 0 0 0 .51-.163.693.693 0 0 0 .25-.452h.3a.935.935 0 0 1-.342.635c-.196.158-.441.237-.738.237-.353 0-.63-.12-.83-.359-.2-.24-.3-.571-.3-.996 0-.433.1-.77.3-1.013.202-.243.482-.364.84-.364.348 0 .62.116.813.35.195.23.293.554.293.97v.1h-1.94m.004-.24l1.626.001c-.013-.286-.091-.51-.234-.674a.71.71 0 0 0-.567-.246.746.746 0 0 0-.58.249c-.149.166-.23.389-.245.669m2.466 1.482v-2.595h.28v.43a.954.954 0 0 1 .342-.367.91.91 0 0 1 .484-.13c.194 0 .355.046.483.135a.63.63 0 0 1 .257.376.934.934 0 0 1 .341-.378.924.924 0 0 1 .494-.132c.281 0 .491.07.63.212.14.14.21.354.21.64v1.81h-.306v-1.786c0-.218-.042-.374-.127-.468-.084-.095-.224-.142-.417-.142-.23 0-.414.07-.552.212a.763.763 0 0 0-.207.557v1.626h-.3v-1.755c0-.215-.046-.375-.135-.479-.09-.104-.227-.156-.413-.156a.74.74 0 0 0-.554.217.784.784 0 0 0-.21.57v1.603zm4.336.696v-.19a.336.336 0 0 0 .117-.135.45.45 0 0 0 .037-.195v-.176h-.154v-.444h.33v.598a.655.655 0 0 1-.076.344.51.51 0 0 1-.254.198m3.147-.696l-.977-2.595h.325l.83 2.229.815-2.23h.31l-.969 2.596zm3.689-2.596v2.596h-.29v-.415a.993.993 0 0 1-.365.366c-.141.08-.31.12-.505.12-.293 0-.513-.077-.662-.23-.146-.154-.22-.385-.22-.69v-1.746h.301v1.675c0 .258.049.442.147.551.097.11.26.164.488.164.249 0 .445-.076.588-.227.145-.153.217-.362.217-.628v-1.535zm.706 2.596v-3.596h.297v3.596zm1.303-1.294c0 .344.077.613.232.808.155.194.369.29.642.29.283 0 .5-.094.652-.285.153-.19.23-.461.23-.813 0-.351-.077-.622-.23-.813-.153-.192-.37-.288-.652-.288-.28 0-.496.095-.647.286-.151.19-.227.462-.227.815m-.29 2.339v-3.64h.305v.466a.994.994 0 0 1 .368-.4c.148-.088.327-.132.537-.132.357 0 .638.122.843.366.205.243.307.576.307 1.001s-.104.759-.312 1.001c-.207.243-.49.364-.852.364a.999.999 0 0 1-.52-.13 1.05 1.05 0 0 1-.371-.39v1.494zm4.921-3.641v2.596h-.29v-.415a.993.993 0 0 1-.364.366c-.142.08-.31.12-.505.12-.293 0-.514-.077-.662-.23-.146-.154-.22-.385-.22-.69v-1.746h.3v1.675c0 .258.05.442.147.551.098.11.26.164.488.164.25 0 .446-.076.589-.227.145-.153.217-.362.217-.628v-1.535zm1.07-.744v.745h.48v.244h-.48v1.892c0 .11.014.184.041.22.028.036.078.054.15.054.03 0 .065-.002.104-.007.04-.007.1-.02.183-.037l.003.24a1.632 1.632 0 0 1-.371.055c-.15 0-.256-.037-.318-.112-.062-.076-.093-.214-.093-.413v-1.892h-.354v-.244h.354v-.744h.3m2.633 1.979c-.08.03-.183.053-.308.071a7.445 7.445 0 0 1-.6.049.988.988 0 0 0-.435.215.445.445 0 0 0-.147.334.44.44 0 0 0 .157.354.652.652 0 0 0 .43.132c.274 0 .493-.07.656-.212a.737.737 0 0 0 .247-.584zm.02.984a1.405 1.405 0 0 1-.445.332c-.16.073-.331.11-.515.11-.262 0-.472-.068-.628-.205a.694.694 0 0 1-.232-.547.71.71 0 0 1 .105-.388.725.725 0 0 1 .31-.261c.155-.07.413-.12.774-.147l.159-.012.085-.017c.248-.05.371-.157.371-.32 0-.202-.05-.346-.15-.432-.1-.088-.265-.132-.494-.132-.233 0-.411.049-.535.147-.123.096-.19.239-.2.43l-.295-.003a.775.775 0 0 1 .285-.613c.184-.151.432-.227.745-.227.31 0 .547.067.708.2.161.134.242.33.242.586v1.416c0 .108.013.175.039.2.026.027.075.04.146.04h.059l.051-.005v.224a.927.927 0 0 1-.112.018.774.774 0 0 1-.103.007c-.124 0-.216-.03-.278-.09-.062-.061-.093-.15-.093-.27v-.04m1.392-2.965v.745h.48v.244h-.48v1.892c0 .11.014.184.041.22.028.036.078.054.15.054.03 0 .065-.002.104-.007.04-.007.1-.02.183-.037l.003.24a1.632 1.632 0 0 1-.371.055c-.15 0-.256-.037-.318-.112-.062-.076-.093-.214-.093-.413v-1.892h-.354v-.244h.354v-.744h.3m1.138 2.099v.015c0 .317.077.57.23.759.153.187.358.28.615.28a.792.792 0 0 0 .51-.163.693.693 0 0 0 .25-.452h.3a.935.935 0 0 1-.342.635c-.195.158-.441.237-.737.237-.354 0-.63-.12-.83-.359-.2-.24-.3-.571-.3-.996 0-.433.1-.77.3-1.013.201-.243.481-.364.84-.364.348 0 .619.116.812.35.196.23.293.554.293.97v.1h-1.94m.004-.24l1.626.001c-.013-.286-.09-.51-.234-.674a.71.71 0 0 0-.567-.246.746.746 0 0 0-.58.249c-.149.166-.23.389-.245.669m3.97.242v.015c0 .317.077.57.23.759.152.187.358.28.615.28a.792.792 0 0 0 .51-.163.693.693 0 0 0 .249-.452h.3a.935.935 0 0 1-.341.635c-.196.158-.442.237-.738.237-.353 0-.63-.12-.83-.359-.2-.24-.3-.571-.3-.996 0-.433.1-.77.3-1.013.202-.243.482-.364.84-.364.348 0 .62.116.813.35.195.23.293.554.293.97v.1h-1.941m.005-.24l1.626.001c-.013-.286-.091-.51-.234-.674a.71.71 0 0 0-.567-.246.746.746 0 0 0-.581.249c-.148.166-.23.389-.244.669m2.661.188c0 .344.077.614.232.81.156.196.37.294.642.294.278 0 .495-.097.65-.29.154-.195.231-.466.231-.814 0-.35-.077-.62-.232-.813-.153-.192-.369-.288-.649-.288s-.496.095-.647.286-.227.462-.227.815m2.031-1.301v2.46c0 .396-.104.695-.312.897-.207.202-.513.303-.918.303-.303 0-.548-.069-.735-.206a.722.722 0 0 1-.305-.554h.307c.018.158.09.28.213.364.125.085.297.127.515.127.312 0 .547-.077.703-.232.158-.155.237-.384.237-.688v-.32a1.088 1.088 0 0 1-.386.388 1.04 1.04 0 0 1-.52.127c-.356 0-.637-.121-.842-.364-.205-.244-.308-.578-.308-1 0-.42.104-.754.31-1 .209-.245.489-.368.84-.368.2 0 .375.043.525.13.15.086.275.214.376.385v-.45zm.85 1.355v.015c0 .317.076.57.23.759a.75.75 0 0 0 .615.28.792.792 0 0 0 .51-.163.693.693 0 0 0 .249-.452h.3a.935.935 0 0 1-.342.635c-.195.158-.44.237-.737.237-.353 0-.63-.12-.83-.359-.2-.24-.3-.571-.3-.996 0-.433.1-.77.3-1.013.202-.243.482-.364.84-.364.348 0 .62.116.813.35.195.23.293.554.293.97v.1h-1.941m.005-.24l1.626.001c-.013-.286-.091-.51-.235-.674a.71.71 0 0 0-.566-.246.746.746 0 0 0-.581.249c-.148.166-.23.389-.244.669m2.861-1.858v.745h.481v.244h-.48v1.892c0 .11.013.184.04.22.028.036.078.054.15.054.03 0 .065-.002.104-.007.04-.007.1-.02.184-.037l.002.24a1.632 1.632 0 0 1-.371.055c-.15 0-.256-.037-.317-.112-.062-.076-.093-.214-.093-.413v-1.892h-.354v-.244h.354v-.744h.3m1.128 4.035v-.19a.336.336 0 0 0 .117-.135.45.45 0 0 0 .037-.195v-.176h-.154v-.444h.33v.598a.655.655 0 0 1-.076.344.51.51 0 0 1-.254.198m2.67-1.99c0 .348.077.619.23.81.155.193.372.289.65.289.281 0 .499-.095.652-.286.153-.19.23-.461.23-.813 0-.351-.077-.622-.23-.813-.153-.192-.37-.288-.652-.288-.278 0-.495.096-.65.288-.153.192-.23.463-.23.813m-.31 0c0-.434.104-.77.31-1.008.21-.24.502-.36.88-.36.38 0 .673.12.881.36.21.237.315.574.315 1.008 0 .431-.104.766-.312 1.004-.209.237-.503.356-.884.356-.378 0-.67-.118-.88-.354-.206-.238-.31-.573-.31-1.006m2.923 1.294v-2.595h.29v.454a.852.852 0 0 1 .31-.39.885.885 0 0 1 .492-.13h.034v.315h-.04c-.258 0-.453.076-.583.23-.128.152-.193.381-.193.685v1.431zm1.533 0v-2.595h.291v.415a.99.99 0 0 1 .361-.359.99.99 0 0 1 .498-.122c.18 0 .336.032.472.095a.703.703 0 0 1 .31.271c.037.06.064.134.08.22.016.084.025.224.025.42v1.655h-.31v-1.609c0-.304-.048-.51-.142-.617-.093-.11-.257-.164-.493-.164-.243 0-.435.077-.576.232-.14.153-.21.362-.21.627v1.531zm4.366-1.36c-.08.03-.183.053-.308.071a7.445 7.445 0 0 1-.6.049.988.988 0 0 0-.435.215.445.445 0 0 0-.147.334.44.44 0 0 0 .157.354.652.652 0 0 0 .43.132c.274 0 .493-.07.656-.212a.737.737 0 0 0 .247-.584zm.02.984a1.405 1.405 0 0 1-.445.332c-.16.073-.331.11-.515.11-.262 0-.471-.068-.628-.205a.694.694 0 0 1-.232-.547.71.71 0 0 1 .105-.388.725.725 0 0 1 .31-.261c.155-.07.413-.12.774-.147l.159-.012.085-.017c.248-.05.372-.157.372-.32 0-.202-.05-.346-.152-.432-.1-.088-.263-.132-.493-.132-.233 0-.411.049-.535.147-.123.096-.19.239-.2.43l-.295-.003a.775.775 0 0 1 .285-.613c.184-.151.433-.227.745-.227.31 0 .547.067.708.2.161.134.242.33.242.586v1.416c0 .108.013.175.039.2.026.027.075.04.146.04h.059l.051-.005v.224a.927.927 0 0 1-.112.018.774.774 0 0 1-.103.007c-.123 0-.216-.03-.278-.09-.062-.061-.093-.15-.093-.27v-.04m.996.375v-2.595h.29v.454a.852.852 0 0 1 .31-.39.885.885 0 0 1 .492-.13h.034v.315h-.04c-.258 0-.453.076-.583.23-.128.152-.193.381-.193.685v1.431zm1.709-1.24v.015c0 .317.077.57.23.759.153.187.358.28.615.28a.792.792 0 0 0 .51-.163.693.693 0 0 0 .25-.452h.3a.935.935 0 0 1-.342.635c-.196.158-.441.237-.738.237-.353 0-.63-.12-.83-.359-.2-.24-.3-.571-.3-.996 0-.433.1-.77.3-1.013.202-.243.482-.364.84-.364.349 0 .62.116.813.35.196.23.293.554.293.97v.1h-1.94m.004-.24l1.626.001c-.013-.286-.091-.51-.234-.674a.71.71 0 0 0-.567-.246.746.746 0 0 0-.58.249c-.149.166-.23.389-.245.669m3.684.674h.3a.595.595 0 0 0 .203.437.73.73 0 0 0 .493.166c.217 0 .387-.042.51-.127a.403.403 0 0 0 .189-.35c0-.209-.23-.37-.691-.48l-.013-.002c-.37-.09-.62-.188-.747-.295a.56.56 0 0 1-.188-.45c0-.223.083-.403.247-.542.166-.14.382-.21.647-.21.291 0 .523.074.696.22.172.145.267.347.285.606h-.305a.558.558 0 0 0-.198-.41c-.118-.1-.28-.15-.483-.15a.68.68 0 0 0-.425.123.387.387 0 0 0-.158.322c0 .231.236.402.708.513l.139.031c.296.073.502.165.617.274.116.109.174.262.174.459 0 .22-.091.398-.274.537-.18.138-.419.207-.715.207-.301 0-.543-.08-.725-.239a.844.844 0 0 1-.286-.64m2.747-.432v.015c0 .317.076.57.23.759a.75.75 0 0 0 .615.28.792.792 0 0 0 .51-.163.693.693 0 0 0 .249-.452h.3a.935.935 0 0 1-.342.635c-.195.158-.44.237-.737.237-.353 0-.63-.12-.83-.359-.2-.24-.3-.571-.3-.996 0-.433.1-.77.3-1.013.202-.243.482-.364.84-.364.348 0 .62.116.813.35.195.23.293.554.293.97v.1h-1.941m.005-.24l1.626.001c-.013-.286-.091-.51-.235-.674a.71.71 0 0 0-.566-.246.746.746 0 0 0-.581.249c-.148.166-.23.389-.244.669m2.661.188c0 .348.076.619.23.81.154.193.369.289.644.289.283 0 .5-.095.652-.283.153-.19.23-.463.23-.816 0-.351-.077-.622-.23-.813-.153-.192-.37-.288-.652-.288-.28 0-.496.095-.647.286-.151.189-.227.46-.227.815m2.031-2.302v3.596h-.3v-.44c-.1.17-.226.298-.381.384a1.087 1.087 0 0 1-.535.127c-.35 0-.626-.122-.83-.366-.203-.244-.305-.577-.305-.999 0-.421.103-.754.31-.998.208-.246.49-.37.845-.37.203 0 .38.044.53.13a.954.954 0 0 1 .366.386v-1.45zm.85 4.292v-.19a.336.336 0 0 0 .117-.135.45.45 0 0 0 .036-.195v-.176h-.153v-.444h.33v.598a.655.655 0 0 1-.076.344.51.51 0 0 1-.254.198m-68.379 6.01c0 .348.076.619.23.81.154.193.369.289.644.289.283 0 .5-.095.652-.283.153-.19.23-.463.23-.816 0-.351-.077-.622-.23-.813-.153-.192-.37-.288-.652-.288-.28 0-.496.095-.647.286-.152.189-.227.46-.227.815m2.031-2.302v3.596h-.3v-.44c-.1.17-.226.298-.381.384a1.087 1.087 0 0 1-.535.127c-.35 0-.626-.122-.83-.366-.203-.244-.305-.577-.305-.999 0-.421.103-.754.31-.998.208-.246.49-.37.845-.37.203 0 .38.044.53.13a.954.954 0 0 1 .366.386v-1.45zm.715.452v-.452h.298v.452zm0 3.144v-2.595h.298v2.595zm1.199-1.294c0 .344.077.614.232.81.156.196.37.294.642.294.278 0 .495-.097.65-.29.154-.195.231-.466.231-.814 0-.35-.077-.62-.231-.813-.153-.192-.37-.288-.65-.288s-.495.095-.647.286-.227.462-.227.815m2.031-1.301v2.46c0 .396-.104.695-.312.897-.207.202-.513.303-.918.303-.303 0-.548-.069-.735-.206a.722.722 0 0 1-.305-.554h.307c.018.158.09.28.213.364.125.085.297.127.515.127.312 0 .547-.077.703-.232.158-.155.237-.384.237-.688v-.32a1.088 1.088 0 0 1-.386.388 1.04 1.04 0 0 1-.52.127c-.356 0-.637-.121-.842-.364-.205-.244-.308-.578-.308-1 0-.42.104-.754.31-1 .209-.245.489-.368.84-.368.2 0 .375.043.525.13.15.086.275.214.376.385v-.45zm.674 2.595v-2.595h.29v.415a.99.99 0 0 1 .362-.359.99.99 0 0 1 .498-.122c.18 0 .336.032.471.095a.703.703 0 0 1 .31.271c.038.06.065.134.08.22.017.084.025.224.025.42v1.655h-.31v-1.609c0-.304-.047-.51-.141-.617-.093-.11-.258-.164-.494-.164-.242 0-.434.077-.576.232-.14.153-.21.362-.21.627v1.531zm2.727-3.144v-.452h.298v.452zm0 3.144v-2.595h.298v2.595zm.893-.808h.301a.595.595 0 0 0 .203.437.73.73 0 0 0 .493.166c.216 0 .386-.042.51-.127a.403.403 0 0 0 .188-.35c0-.209-.23-.37-.69-.48l-.013-.002c-.371-.09-.62-.188-.747-.295a.56.56 0 0 1-.188-.45c0-.223.082-.403.247-.542.166-.14.381-.21.646-.21.292 0 .524.074.696.22.173.145.268.347.286.606h-.305a.558.558 0 0 0-.198-.41c-.119-.1-.28-.15-.483-.15a.68.68 0 0 0-.425.123.387.387 0 0 0-.159.322c0 .231.236.402.708.513.062.014.108.025.14.031.295.073.501.165.617.274s.173.262.173.459c0 .22-.09.398-.273.537-.18.138-.42.207-.715.207-.302 0-.543-.08-.726-.239a.844.844 0 0 1-.285-.64m2.461 0h.3a.595.595 0 0 0 .203.437.73.73 0 0 0 .493.166c.216 0 .386-.042.51-.127a.403.403 0 0 0 .188-.35c0-.209-.23-.37-.69-.48l-.013-.002c-.371-.09-.62-.188-.747-.295a.56.56 0 0 1-.188-.45c0-.223.082-.403.246-.542.166-.14.382-.21.647-.21.292 0 .524.074.696.22.173.145.268.347.286.606h-.305a.558.558 0 0 0-.198-.41c-.119-.1-.28-.15-.483-.15a.68.68 0 0 0-.425.123.387.387 0 0 0-.159.322c0 .231.236.402.708.513.062.014.108.025.14.031.295.073.501.165.617.274.115.109.173.262.173.459 0 .22-.09.398-.273.537-.18.138-.42.207-.716.207-.3 0-.542-.08-.725-.239a.844.844 0 0 1-.285-.64m2.602-2.336v-.452h.298v.452zm0 3.144v-2.595h.298v2.595zm1.004 0v-2.595h.28v.43a.954.954 0 0 1 .342-.367.91.91 0 0 1 .484-.13c.193 0 .354.046.483.135a.63.63 0 0 1 .256.376.934.934 0 0 1 .342-.378.924.924 0 0 1 .493-.132c.282 0 .492.07.63.212.14.14.21.354.21.64v1.81h-.305v-1.786c0-.218-.042-.374-.127-.468-.085-.095-.224-.142-.417-.142-.23 0-.414.07-.552.212a.763.763 0 0 0-.208.557v1.626h-.3v-1.755c0-.215-.045-.375-.134-.479-.09-.104-.227-.156-.413-.156a.74.74 0 0 0-.554.217.784.784 0 0 0-.21.57v1.603zm5.388-.808h.3a.595.595 0 0 0 .203.437.73.73 0 0 0 .493.166c.216 0 .387-.042.51-.127a.403.403 0 0 0 .188-.35c0-.209-.23-.37-.69-.48l-.013-.002c-.371-.09-.62-.188-.747-.295a.56.56 0 0 1-.188-.45c0-.223.082-.403.247-.542.166-.14.381-.21.647-.21.29 0 .523.074.695.22.173.145.268.347.286.606h-.305a.558.558 0 0 0-.198-.41c-.119-.1-.28-.15-.483-.15a.68.68 0 0 0-.425.123.387.387 0 0 0-.159.322c0 .231.236.402.708.513.062.014.108.025.14.031.296.073.501.165.617.274s.173.262.173.459c0 .22-.09.398-.273.537-.18.138-.42.207-.715.207-.302 0-.543-.08-.725-.239a.844.844 0 0 1-.286-.64m2.602-2.336v-.452h.298v.452zm0 3.144v-2.595h.298v2.595zm1.399-3.34v.745h.481v.244h-.48v1.892c0 .11.013.184.04.22.028.036.078.054.15.054.03 0 .066-.002.105-.007l.183-.037.002.24a1.632 1.632 0 0 1-.37.055c-.15 0-.256-.037-.318-.112-.062-.076-.093-.214-.093-.413v-1.892h-.354v-.244h.354v-.744h.3m3.96 1.979c-.08.03-.182.053-.307.071a7.445 7.445 0 0 1-.6.049.988.988 0 0 0-.435.215.445.445 0 0 0-.147.334.44.44 0 0 0 .156.354.652.652 0 0 0 .43.132c.275 0 .494-.07.657-.212a.737.737 0 0 0 .246-.584zm.02.984a1.405 1.405 0 0 1-.445.332c-.159.073-.33.11-.515.11-.262 0-.47-.068-.627-.205a.694.694 0 0 1-.232-.547.71.71 0 0 1 .105-.388.725.725 0 0 1 .31-.261c.155-.07.413-.12.774-.147l.159-.012.085-.017c.247-.05.371-.157.371-.32 0-.202-.05-.346-.151-.432-.1-.088-.264-.132-.493-.132-.233 0-.411.049-.535.147-.124.096-.19.239-.2.43l-.296-.003a.775.775 0 0 1 .286-.613c.184-.151.432-.227.745-.227.31 0 .547.067.708.2.16.134.241.33.241.586v1.416c0 .108.013.175.04.2.025.027.074.04.146.04h.058l.052-.005v.224a.927.927 0 0 1-.113.018.774.774 0 0 1-.102.007c-.124 0-.217-.03-.278-.09-.062-.061-.093-.15-.093-.27v-.04m.996.375v-2.595h.28v.43a.954.954 0 0 1 .342-.367.91.91 0 0 1 .484-.13c.194 0 .355.046.483.135a.63.63 0 0 1 .257.376.934.934 0 0 1 .341-.378.924.924 0 0 1 .494-.132c.281 0 .491.07.63.212.14.14.21.354.21.64v1.81h-.306v-1.786c0-.218-.042-.374-.127-.468-.084-.095-.224-.142-.417-.142-.23 0-.414.07-.552.212a.763.763 0 0 0-.207.557v1.626h-.3v-1.755c0-.215-.046-.375-.135-.479-.09-.104-.227-.156-.413-.156a.74.74 0 0 0-.554.217.784.784 0 0 0-.21.57v1.603zm4.346-1.24v.015c0 .317.076.57.23.759a.75.75 0 0 0 .614.28.792.792 0 0 0 .51-.163.693.693 0 0 0 .25-.452h.3a.935.935 0 0 1-.342.635c-.195.158-.441.237-.737.237-.353 0-.63-.12-.83-.359-.2-.24-.3-.571-.3-.996 0-.433.1-.77.3-1.013.202-.243.481-.364.84-.364.348 0 .619.116.813.35.195.23.293.554.293.97v.1h-1.941m.005-.24l1.625.001c-.013-.286-.09-.51-.234-.674a.71.71 0 0 0-.566-.246.746.746 0 0 0-.581.249c-.148.166-.23.389-.244.669m2.861-1.858v.745h.48v.244h-.48v1.892c0 .11.014.184.041.22.028.036.078.054.15.054.03 0 .065-.002.104-.007.04-.007.1-.02.183-.037l.003.24a1.632 1.632 0 0 1-.371.055c-.15 0-.256-.037-.318-.112-.062-.076-.093-.214-.093-.413v-1.892h-.354v-.244h.354v-.744h.3m1.129 4.035v-.19a.336.336 0 0 0 .117-.135.45.45 0 0 0 .037-.195v-.176h-.154v-.444h.33v.598a.655.655 0 0 1-.076.344.51.51 0 0 1-.254.198m2.79-1.99c0 .344.078.613.232.808.155.194.369.29.642.29.284 0 .5-.094.652-.285.153-.19.23-.461.23-.813 0-.351-.077-.622-.23-.813-.153-.192-.37-.288-.652-.288-.28 0-.495.095-.647.286-.151.19-.227.462-.227.815m-.29 2.339v-3.64h.305v.466a.994.994 0 0 1 .369-.4c.148-.088.327-.132.537-.132.356 0 .637.122.842.366.205.243.308.576.308 1.001s-.105.759-.313 1.001c-.207.243-.49.364-.852.364-.2 0-.373-.043-.52-.13a1.05 1.05 0 0 1-.371-.39v1.494zm3.067-2.285v.015c0 .317.076.57.229.759.153.187.358.28.615.28a.792.792 0 0 0 .51-.163.693.693 0 0 0 .25-.452h.3a.935.935 0 0 1-.342.635c-.196.158-.441.237-.738.237-.353 0-.63-.12-.83-.359-.2-.24-.3-.571-.3-.996 0-.433.1-.77.3-1.013.202-.243.482-.364.84-.364.348 0 .62.116.813.35.195.23.293.554.293.97v.1h-1.94m.004-.24l1.626.001c-.013-.286-.091-.51-.234-.674a.71.71 0 0 0-.567-.246.746.746 0 0 0-.58.249c-.149.166-.23.389-.245.669m2.661.188c0 .348.077.619.23.81.154.193.37.289.644.289.283 0 .5-.095.652-.283.153-.19.23-.463.23-.816 0-.351-.077-.622-.23-.813-.153-.192-.37-.288-.652-.288-.28 0-.495.095-.647.286-.151.189-.227.46-.227.815m2.031-2.302v3.596h-.3v-.44c-.1.17-.226.298-.38.384a1.087 1.087 0 0 1-.535.127c-.35 0-.627-.122-.83-.366s-.306-.577-.306-.999c0-.421.104-.754.31-.998.209-.246.49-.37.845-.37.204 0 .38.044.53.13a.954.954 0 0 1 .366.386v-1.45zm.86 2.356v.015c0 .317.076.57.23.759a.75.75 0 0 0 .615.28.792.792 0 0 0 .51-.163.693.693 0 0 0 .249-.452h.3a.935.935 0 0 1-.342.635c-.195.158-.44.237-.737.237-.353 0-.63-.12-.83-.359-.2-.24-.3-.571-.3-.996 0-.433.1-.77.3-1.013.202-.243.482-.364.84-.364.348 0 .62.116.813.35.195.23.293.554.293.97v.1h-1.941m.005-.24l1.626.001c-.013-.286-.091-.51-.235-.674a.71.71 0 0 0-.566-.246.746.746 0 0 0-.581.249c-.148.166-.23.389-.244.669m2.632 1.482v-.444h.33v.444zm2.556 0v-3.596h.363l2.032 3.086v-3.086h.32v3.596h-.367l-2.024-3.086v3.086zm5.129-1.36c-.08.03-.182.053-.308.071a7.445 7.445 0 0 1-.6.049.988.988 0 0 0-.435.215.445.445 0 0 0-.146.334.44.44 0 0 0 .156.354.652.652 0 0 0 .43.132c.275 0 .494-.07.656-.212.165-.144.247-.338.247-.584zm.02.984a1.405 1.405 0 0 1-.445.332c-.16.073-.331.11-.515.11-.262 0-.471-.068-.627-.205a.694.694 0 0 1-.232-.547.71.71 0 0 1 .105-.388.725.725 0 0 1 .31-.261c.154-.07.412-.12.774-.147l.158-.012.086-.017c.247-.05.37-.157.37-.32 0-.202-.05-.346-.15-.432-.1-.088-.264-.132-.494-.132-.232 0-.41.049-.534.147-.124.096-.19.239-.2.43l-.296-.003a.775.775 0 0 1 .286-.613c.184-.151.432-.227.744-.227.311 0 .547.067.708.2.162.134.242.33.242.586v1.416c0 .108.013.175.04.2.025.027.074.04.146.04h.058l.052-.005v.224a.927.927 0 0 1-.113.018.774.774 0 0 1-.102.007c-.124 0-.217-.03-.279-.09-.061-.061-.092-.15-.092-.27v-.04m.996.375v-2.595h.28v.43a.954.954 0 0 1 .342-.367.91.91 0 0 1 .484-.13c.193 0 .354.046.483.135a.63.63 0 0 1 .256.376.934.934 0 0 1 .342-.378.924.924 0 0 1 .493-.132c.282 0 .492.07.63.212.14.14.21.354.21.64v1.81h-.305v-1.786c0-.218-.042-.374-.127-.468-.085-.095-.224-.142-.417-.142-.23 0-.414.07-.552.212a.763.763 0 0 0-.208.557v1.626h-.3v-1.755c0-.215-.045-.375-.134-.479-.09-.104-.227-.156-.413-.156a.74.74 0 0 0-.554.217.784.784 0 0 0-.21.57v1.603zm7.168-1.36c-.08.03-.183.053-.308.071a7.445 7.445 0 0 1-.6.049.988.988 0 0 0-.435.215.445.445 0 0 0-.147.334.44.44 0 0 0 .157.354.652.652 0 0 0 .43.132c.274 0 .493-.07.656-.212a.737.737 0 0 0 .247-.584zm.02.984a1.405 1.405 0 0 1-.445.332c-.16.073-.331.11-.515.11-.262 0-.471-.068-.628-.205a.694.694 0 0 1-.232-.547.71.71 0 0 1 .105-.388.725.725 0 0 1 .31-.261c.155-.07.413-.12.774-.147l.159-.012.085-.017c.248-.05.372-.157.372-.32 0-.202-.05-.346-.152-.432-.1-.088-.263-.132-.493-.132-.233 0-.411.049-.535.147-.123.096-.19.239-.2.43l-.295-.003a.775.775 0 0 1 .285-.613c.184-.151.433-.227.745-.227.31 0 .547.067.708.2.161.134.242.33.242.586v1.416c0 .108.013.175.039.2.026.027.075.04.146.04h.059l.051-.005v.224a.926.926 0 0 1-.112.018.773.773 0 0 1-.103.007c-.123 0-.216-.03-.278-.09-.062-.061-.093-.15-.093-.27v-.04m-68.887 8.375v-2.595h.291v.415a.99.99 0 0 1 .361-.359.99.99 0 0 1 .498-.122c.18 0 .336.032.472.095a.703.703 0 0 1 .31.271c.037.06.064.134.08.22.016.084.025.224.025.42v1.655h-.31v-1.609c0-.304-.048-.51-.142-.617-.093-.11-.257-.164-.493-.164-.243 0-.435.077-.576.232-.14.153-.21.362-.21.627v1.531zm4.727-2.596v2.596h-.29v-.415a.993.993 0 0 1-.364.366c-.142.08-.31.12-.506.12-.293 0-.513-.077-.661-.23-.147-.154-.22-.385-.22-.69v-1.746h.3v1.675c0 .258.05.442.147.551.097.11.26.164.488.164.25 0 .445-.076.588-.227.145-.153.218-.362.218-.628v-1.535zm.674 2.596v-2.595h.29v.415a.99.99 0 0 1 .362-.359.99.99 0 0 1 .498-.122c.179 0 .336.032.471.095a.703.703 0 0 1 .31.271c.037.06.064.134.08.22.017.084.025.224.025.42v1.655h-.31v-1.609c0-.304-.047-.51-.142-.617-.092-.11-.257-.164-.493-.164-.242 0-.434.077-.576.232-.14.153-.21.362-.21.627v1.531zm4.48-.896h.3c-.028.298-.137.533-.33.706-.192.17-.441.256-.749.256-.352 0-.629-.12-.832-.361-.202-.241-.303-.57-.303-.984 0-.43.102-.768.307-1.013.207-.246.49-.37.848-.37.29 0 .53.083.717.248.19.162.29.377.306.644h-.289a.686.686 0 0 0-.239-.454.737.737 0 0 0-.495-.171.744.744 0 0 0-.618.293c-.151.195-.227.46-.227.796 0 .343.076.615.23.815s.36.3.62.3c.201 0 .37-.062.505-.187a.839.839 0 0 0 .249-.518m.959.896v-.444h.33v.444zm3.401 0l-1.25-3.596h.344l1.087 3.176 1.084-3.176h.334l-1.245 3.596zm1.931-1.24v.015c0 .317.077.57.23.759.153.187.358.28.615.28a.792.792 0 0 0 .51-.163.693.693 0 0 0 .25-.452h.3a.935.935 0 0 1-.342.635c-.195.158-.441.237-.737.237-.354 0-.63-.12-.83-.359-.2-.24-.3-.571-.3-.996 0-.433.1-.77.3-1.013.201-.243.481-.364.84-.364.348 0 .619.116.812.35.196.23.293.554.293.97v.1h-1.94m.004-.24l1.626.001c-.013-.286-.09-.51-.234-.674a.71.71 0 0 0-.567-.246.746.746 0 0 0-.58.249c-.149.166-.23.389-.245.669m2.356.674h.3a.595.595 0 0 0 .203.437.73.73 0 0 0 .493.166c.217 0 .387-.042.51-.127a.403.403 0 0 0 .189-.35c0-.209-.23-.37-.691-.48l-.013-.002c-.37-.09-.62-.188-.747-.295a.56.56 0 0 1-.188-.45c0-.223.083-.403.247-.542.166-.14.382-.21.647-.21.291 0 .523.074.696.22.172.145.267.347.285.606h-.305a.558.558 0 0 0-.198-.41c-.118-.1-.28-.15-.483-.15a.68.68 0 0 0-.425.123.387.387 0 0 0-.158.322c0 .231.236.402.708.513l.139.031c.296.073.502.165.617.274.116.109.174.262.174.459 0 .22-.091.398-.274.537-.18.138-.419.207-.715.207-.301 0-.543-.08-.725-.239a.844.844 0 0 1-.286-.64m2.966-2.532v.745h.481v.244h-.48v1.892c0 .11.013.184.041.22s.077.054.149.054c.03 0 .066-.002.105-.007l.183-.037.002.24a1.632 1.632 0 0 1-.37.055c-.15 0-.256-.037-.318-.112-.062-.076-.093-.214-.093-.413v-1.892h-.354v-.244h.354v-.744h.3m.994.195v-.452h.298v.452zm0 3.144v-2.595h.298v2.595zm1.289-1.294c0 .345.078.615.232.808.156.194.372.29.647.29.282 0 .498-.094.65-.282.15-.19.227-.463.227-.816 0-.351-.077-.622-.23-.813-.151-.192-.367-.288-.647-.288-.281 0-.499.095-.652.286-.151.19-.227.462-.227.815m-.285 1.294v-3.596h.3v1.462a1.01 1.01 0 0 1 .373-.395c.152-.088.33-.132.538-.132.354 0 .634.122.84.366s.31.578.31 1.001c0 .422-.106.755-.316.999-.208.244-.493.366-.854.366-.2 0-.377-.044-.53-.132a.96.96 0 0 1-.361-.388v.45zm4.921-2.596v2.596h-.29v-.415a.993.993 0 0 1-.364.366c-.141.08-.31.12-.505.12-.293 0-.514-.077-.662-.23-.146-.154-.22-.385-.22-.69v-1.746h.3v1.675c0 .258.05.442.147.551.098.11.26.164.488.164.25 0 .446-.076.589-.227.145-.153.217-.362.217-.628v-1.535zm.706 2.596v-3.596h.298v3.596zm3.035-2.596v2.596h-.29v-.415a.993.993 0 0 1-.365.366c-.141.08-.31.12-.505.12-.293 0-.514-.077-.662-.23-.146-.154-.22-.385-.22-.69v-1.746h.301v1.675c0 .258.049.442.146.551.098.11.26.164.489.164.249 0 .445-.076.588-.227.145-.153.217-.362.217-.628v-1.535zm.674 2.596v-2.595h.28v.43a.954.954 0 0 1 .342-.367.91.91 0 0 1 .483-.13c.194 0 .355.046.484.135a.63.63 0 0 1 .256.376.934.934 0 0 1 .342-.378.924.924 0 0 1 .493-.132c.282 0 .492.07.63.212.14.14.21.354.21.64v1.81h-.305v-1.786c0-.218-.042-.374-.127-.468-.085-.095-.224-.142-.418-.142-.23 0-.413.07-.551.212a.763.763 0 0 0-.208.557v1.626h-.3v-1.755c0-.215-.045-.375-.134-.479-.09-.104-.227-.156-.413-.156a.74.74 0 0 0-.554.217.784.784 0 0 0-.21.57v1.603zm7.167-1.36c-.08.03-.182.053-.307.071a7.445 7.445 0 0 1-.6.049.988.988 0 0 0-.435.215.445.445 0 0 0-.147.334.44.44 0 0 0 .156.354.652.652 0 0 0 .43.132c.275 0 .494-.07.657-.212a.737.737 0 0 0 .246-.584zm.02.984a1.405 1.405 0 0 1-.444.332c-.16.073-.332.11-.515.11-.263 0-.472-.068-.628-.205a.694.694 0 0 1-.232-.547.71.71 0 0 1 .105-.388.725.725 0 0 1 .31-.261c.155-.07.413-.12.774-.147l.159-.012.085-.017c.248-.05.371-.157.371-.32 0-.202-.05-.346-.151-.432-.1-.088-.264-.132-.493-.132-.233 0-.411.049-.535.147-.124.096-.19.239-.2.43l-.295-.003a.775.775 0 0 1 .285-.613c.184-.151.432-.227.745-.227.31 0 .547.067.708.2.161.134.242.33.242.586v1.416c0 .108.013.175.039.2.026.027.074.04.146.04h.059l.05-.005v.224a.927.927 0 0 1-.111.018.774.774 0 0 1-.103.007c-.124 0-.216-.03-.278-.09-.062-.061-.093-.15-.093-.27v-.04m.996.375v-2.595h.29v.415a.99.99 0 0 1 .362-.359.99.99 0 0 1 .498-.122c.179 0 .336.032.471.095a.703.703 0 0 1 .31.271c.038.06.065.134.08.22.017.084.025.224.025.42v1.655h-.31v-1.609c0-.304-.047-.51-.141-.617-.093-.11-.258-.164-.494-.164-.242 0-.434.077-.576.232-.14.153-.21.362-.21.627v1.531zm3.09-3.34v.745h.482v.244h-.481v1.892c0 .11.014.184.041.22.028.036.078.054.15.054.03 0 .065-.002.104-.007.04-.007.1-.02.183-.037l.003.24a1.632 1.632 0 0 1-.371.055c-.15 0-.256-.037-.318-.112-.061-.076-.092-.214-.092-.413v-1.892h-.354v-.244h.354v-.744h.3m1.138 2.099v.015c0 .317.076.57.23.759a.75.75 0 0 0 .614.28.792.792 0 0 0 .51-.163.693.693 0 0 0 .25-.452h.3a.935.935 0 0 1-.342.635c-.195.158-.441.237-.737.237-.353 0-.63-.12-.83-.359-.2-.24-.3-.571-.3-.996 0-.433.1-.77.3-1.013.202-.243.481-.364.84-.364.348 0 .619.116.813.35.195.23.293.554.293.97v.1h-1.941m.005-.24l1.625.001c-.013-.286-.09-.51-.234-.674a.71.71 0 0 0-.566-.246.746.746 0 0 0-.581.249c-.148.166-.23.389-.244.669m3.826-1.662v-.452h.297v.452zm0 3.144v-2.595h.297v2.595zm1.303-1.294c0 .344.077.613.232.808.154.194.368.29.642.29.283 0 .5-.094.652-.285.153-.19.23-.461.23-.813 0-.351-.077-.622-.23-.813-.153-.192-.37-.288-.652-.288-.28 0-.496.095-.647.286s-.227.462-.227.815m-.29 2.339v-3.64h.305v.466a.994.994 0 0 1 .368-.4c.148-.088.327-.132.537-.132.357 0 .638.122.843.366.205.243.307.576.307 1.001s-.104.759-.312 1.001c-.207.243-.491.364-.852.364a.999.999 0 0 1-.52-.13 1.05 1.05 0 0 1-.371-.39v1.494zm2.78-1.853h.3a.595.595 0 0 0 .203.437.73.73 0 0 0 .493.166c.217 0 .387-.042.51-.127a.403.403 0 0 0 .188-.35c0-.209-.23-.37-.69-.48l-.013-.002c-.37-.09-.62-.188-.747-.295a.56.56 0 0 1-.188-.45c0-.223.082-.403.247-.542.166-.14.382-.21.647-.21.291 0 .523.074.696.22.172.145.267.347.285.606h-.305a.558.558 0 0 0-.198-.41c-.118-.1-.28-.15-.483-.15a.68.68 0 0 0-.425.123.387.387 0 0 0-.159.322c0 .231.236.402.708.513l.14.031c.296.073.502.165.617.274.116.109.174.262.174.459 0 .22-.092.398-.274.537-.18.138-.419.207-.715.207-.301 0-.543-.08-.725-.239a.844.844 0 0 1-.286-.64m4.602-1.788v2.596h-.29v-.415a.993.993 0 0 1-.364.366c-.142.08-.31.12-.505.12-.293 0-.514-.077-.662-.23-.147-.154-.22-.385-.22-.69v-1.746h.3v1.675c0 .258.05.442.147.551.098.11.26.164.488.164.25 0 .445-.076.589-.227.144-.153.217-.362.217-.628v-1.535zm.674 2.596v-2.595h.28v.43a.954.954 0 0 1 .343-.367.91.91 0 0 1 .483-.13c.194 0 .355.046.483.135a.63.63 0 0 1 .257.376.934.934 0 0 1 .342-.378.924.924 0 0 1 .493-.132c.281 0 .491.07.63.212.14.14.21.354.21.64v1.81h-.306v-1.786c0-.218-.042-.374-.127-.468-.084-.095-.223-.142-.417-.142-.23 0-.414.07-.552.212a.763.763 0 0 0-.207.557v1.626h-.3v-1.755c0-.215-.045-.375-.135-.479s-.227-.156-.413-.156a.74.74 0 0 0-.554.217.784.784 0 0 0-.21.57v1.603z"/>
  </g>
  <path clip-path="url(#i)" d="M114.4 82.503c0 4.465-4.997 6.61-7.48 8.294-5.108 3.465-14.739 3.525-20.52 3.606-.081 5.781-.034 15.305-3.5 20.413-1.683 2.482-5.79 8.687-8.7 8.687-2.091 1.534 3.488 8.211 6.735 5.32 9.502-8.461 35.132-30.023 43.35-39.263 2.041-2.294-4.904-9.845-9.885-7.057z" filter="url(#j)" opacity=".277"/>
  <path clip-path="url(#i)" d="M113.9 82.503c0 4.465-4.497 6.61-6.98 8.294-5.108 3.465-14.739 3.525-20.52 3.606-.081 5.781.766 15.305-2.7 20.413-1.683 2.482-5.79 7.987-8.7 7.987-2.091 1.534 3.488 11.211 6.735 8.32 9.502-8.461 45.999-30.201 54.218-39.442 2.04-2.294-17.072-11.966-22.053-9.178z" filter="url(#k)" opacity=".401"/>
  <path d="M112 82.503c0 4.465-2.797 6.41-5.28 8.094-5.108 3.465-14.939 3.325-20.72 3.406-.081 5.781.166 15.505-3.3 20.613-1.683 2.482-5.29 5.387-8.2 5.387 2.318 0 4.743-1.335 7.584-4.085 9.142-8.849 17.367-16.135 25.673-25.297 1.92-2.117 4.243-3.642 4.243-8.118z" fill="url(#l)"/>
  <path d="M112.019 83.213c-.317 3.899-3.523 5.902-5.85 7.48C101.06 94.16 90.83 93.02 85.05 93.1c-.081 5.781.853 16.316-2.612 21.425-1.474 2.172-4.1 4.66-6.763 5.25 1.98-.362 3.885-1.661 6.269-3.969.339-.388.574-.679 1.106-1.5 3.465-5.108 2.924-14.465 3.005-20.247 5.78-.08 15.718.212 20.826-3.253.466-.315 1.594-1.187 2.007-1.6 1.536-1.536 2.901-2.613 3.13-5.993zm-36.344 36.562c-.158.035-.313.041-.469.063.157-.017.31-.034.469-.063z" fill="#fff"/>
  <path clip-path="url(#m)" d="M117.315 81.861l-44.676 43.487" fill="none" filter="url(#n)" stroke="url(#o)" stroke-width="1.2"/>
</svg>
